<?xml version="1.0" encoding="utf-8"?>
<!-- Generator: Adobe Illustrator 15.0.2, SVG Export Plug-In . SVG Version: 6.00 Build 0)  -->
<!DOCTYPE svg PUBLIC "-//W3C//DTD SVG 1.1//EN" "http://www.w3.org/Graphics/SVG/1.1/DTD/svg11.dtd">
<svg version="1.1" id="Layer_1" xmlns="http://www.w3.org/2000/svg" xmlns:xlink="http://www.w3.org/1999/xlink" x="0px" y="0px"
	 width="305px" height="80px" viewBox="0 0 305 80" enable-background="new 0 0 305 80" xml:space="preserve">
<g>
	<path fill="#FD7400" d="M21.779,40.878c-0.392,0.076-0.802,0.139-1.231,0.189c-0.428,0.052-0.857,0.114-1.286,0.188
		c-0.405,0.076-0.802,0.178-1.193,0.304c-0.393,0.126-0.731,0.295-1.022,0.509c-0.291,0.215-0.524,0.486-0.701,0.812
		c-0.178,0.327-0.265,0.742-0.265,1.246c0,0.479,0.087,0.882,0.265,1.209c0.176,0.326,0.417,0.585,0.719,0.775
		c0.303,0.189,0.657,0.319,1.061,0.396s0.82,0.114,1.25,0.114c1.059,0,1.879-0.177,2.46-0.529c0.582-0.354,1.011-0.775,1.289-1.266
		c0.276-0.49,0.447-0.988,0.51-1.492s0.095-0.906,0.095-1.209v-2.001c-0.228,0.201-0.512,0.357-0.851,0.472
		C22.537,40.709,22.172,40.803,21.779,40.878"/>
	<path fill="#FD7400" d="M75.928,47.961c0,0-0.005,0.004-0.01,0.01l-0.003,0.003c-0.867,0.873-1.897,1.497-3.062,1.851
		c-1.177,0.355-2.391,0.536-3.612,0.536c-0.944,0-1.841-0.118-2.663-0.349c-0.825-0.23-1.56-0.6-2.185-1.094
		c-0.626-0.497-1.123-1.131-1.473-1.886c-0.351-0.751-0.53-1.656-0.53-2.69c0-1.137,0.205-2.09,0.609-2.835
		c0.404-0.743,0.933-1.343,1.574-1.786c0.633-0.441,1.366-0.773,2.178-0.993c0.788-0.213,1.604-0.386,2.422-0.514
		c0.812-0.127,1.618-0.229,2.396-0.305c0.764-0.075,1.455-0.186,2.052-0.334c0.575-0.145,1.033-0.354,1.359-0.625
		c0.3-0.245,0.442-0.62,0.421-1.112c0-0.541-0.089-0.974-0.26-1.284c-0.171-0.307-0.402-0.551-0.687-0.722
		c-0.291-0.173-0.634-0.292-1.023-0.352c-0.4-0.06-0.845-0.09-1.316-0.09c-1.011,0-1.812,0.216-2.378,0.641
		c-0.514,0.386-0.832,1.032-0.953,1.917h0.032l-0.036,0.033c-0.008,0.06-0.018,0.12-0.024,0.183l-0.008,0.088l-0.008,0.091h-0.091
		h-0.089h-0.179l-0.04,0.037l0.003-0.037h-4.96l-0.001,0.042l-0.041-0.042h-0.142h-0.105h-0.104L63,36.236l0.006-0.103
		c0.003-0.048,0.008-0.094,0.013-0.14l-0.043-0.046h0.045c0.097-1.208,0.418-2.236,0.961-3.051c0.571-0.854,1.305-1.549,2.18-2.065
		c0.874-0.514,1.866-0.883,2.953-1.1c1.072-0.216,2.172-0.326,3.268-0.326c0.987,0,1.999,0.071,3.01,0.208
		C70.938,15.192,57.499,4.713,41.616,4.713c-19.521,0-35.344,15.823-35.344,35.345c0,19.52,15.822,35.344,35.344,35.344
		c16.904,0,31.034-11.868,34.52-27.723c-0.118,0.158-0.203,0.274-0.205,0.274L75.928,47.961z M24.329,49.67
		c-0.1-0.301-0.183-0.608-0.246-0.921c-0.063-0.313-0.108-0.634-0.132-0.961c-0.857,0.878-1.867,1.495-3.024,1.847
		c-1.159,0.352-2.344,0.527-3.554,0.527c-0.934,0-1.802-0.113-2.609-0.342c-0.808-0.226-1.513-0.58-2.117-1.057
		c-0.606-0.48-1.077-1.084-1.416-1.814c-0.342-0.73-0.51-1.6-0.51-2.607c0-1.109,0.193-2.021,0.584-2.741
		c0.391-0.717,0.895-1.29,1.513-1.718c0.619-0.429,1.324-0.75,2.119-0.964c0.794-0.215,1.594-0.384,2.401-0.51
		c0.807-0.125,1.602-0.228,2.383-0.303c0.781-0.074,1.474-0.189,2.08-0.339c0.605-0.152,1.083-0.371,1.437-0.662
		c0.354-0.29,0.517-0.712,0.493-1.266c0-0.58-0.095-1.039-0.284-1.38c-0.189-0.34-0.441-0.604-0.756-0.793
		c-0.316-0.189-0.681-0.315-1.096-0.378c-0.417-0.063-0.864-0.094-1.343-0.094c-1.06,0-1.891,0.226-2.497,0.682
		c-0.604,0.452-0.957,1.211-1.058,2.27h-5.362c0.076-1.261,0.391-2.308,0.945-3.139c0.555-0.832,1.259-1.5,2.115-2.006
		c0.856-0.503,1.82-0.864,2.89-1.077c1.07-0.215,2.147-0.322,3.231-0.322c0.982,0,1.978,0.07,2.984,0.208
		c1.009,0.137,1.928,0.409,2.758,0.812c0.832,0.404,1.513,0.964,2.041,1.683c0.53,0.717,0.794,1.669,0.794,2.853v10.168
		c0,0.881,0.05,1.726,0.15,2.533c0.102,0.806,0.276,1.41,0.528,1.812L24.329,49.67z M46.936,48.121
		c-1.663,1.361-3.792,2.041-6.384,2.041c-1.461,0-2.802-0.246-4.024-0.735c-1.221-0.491-2.259-1.177-3.113-2.06
		c-0.857-0.879-1.524-1.93-2.002-3.15c-0.478-1.219-0.718-2.562-0.718-4.021c0-1.51,0.221-2.913,0.662-4.208
		c0.439-1.297,1.088-2.417,1.944-3.36c0.855-0.944,1.9-1.681,3.134-2.209c1.235-0.528,2.645-0.793,4.23-0.793
		c1.16,0,2.273,0.152,3.342,0.454c1.072,0.302,2.028,0.761,2.873,1.377c0.843,0.619,1.529,1.386,2.057,2.305
		c0.53,0.919,0.832,2.008,0.908,3.268h-5.251c-0.352-2.248-1.674-3.37-3.966-3.37c-0.855,0-1.574,0.196-2.154,0.585
		c-0.58,0.391-1.051,0.895-1.416,1.511c-0.365,0.617-0.624,1.295-0.775,2.037c-0.15,0.743-0.226,1.478-0.226,2.208
		c0,0.706,0.076,1.423,0.226,2.152c0.152,0.73,0.396,1.391,0.738,1.981c0.339,0.593,0.799,1.075,1.379,1.453
		c0.58,0.378,1.284,0.567,2.115,0.567c1.285,0,2.273-0.36,2.964-1.077c0.693-0.719,1.127-1.681,1.303-2.891h5.177
		C49.605,44.781,48.598,46.758,46.936,48.121 M62.107,33.734h-3.928v9.663c0,0.906,0.15,1.511,0.454,1.812
		c0.3,0.304,0.906,0.453,1.813,0.453c0.205,0,0.397-0.013,0.591-0.025v4.159c-0.146,0.012-0.288,0.024-0.441,0.032
		c-0.554,0.025-1.096,0.04-1.625,0.04c-0.83,0-1.618-0.057-2.359-0.17c-0.743-0.113-1.398-0.334-1.965-0.662
		c-0.565-0.327-1.013-0.792-1.34-1.397s-0.491-1.398-0.491-2.38V33.734h-2.512v-3.591h2.512V24.29h5.363v5.853h3.928V33.734z"/>
	<path fill="#FD7400" d="M73.687,41.071c-0.398,0.077-0.817,0.142-1.246,0.192c-0.423,0.048-0.853,0.113-1.274,0.188
		c-0.392,0.072-0.786,0.172-1.169,0.295c-0.368,0.119-0.694,0.281-0.965,0.479c-0.265,0.196-0.483,0.449-0.644,0.749
		c-0.16,0.296-0.241,0.684-0.241,1.153c0,0.445,0.081,0.819,0.241,1.114c0.16,0.295,0.379,0.532,0.65,0.702
		c0.279,0.175,0.614,0.299,0.991,0.37c0.393,0.072,0.801,0.109,1.214,0.109c1.019,0,1.813-0.168,2.361-0.5
		c0.549-0.335,0.96-0.736,1.217-1.195c0.263-0.465,0.428-0.943,0.488-1.418c0.063-0.507,0.094-0.895,0.094-1.185v-1.618
		c-0.178,0.106-0.373,0.2-0.594,0.274C74.468,40.897,74.089,40.994,73.687,41.071"/>
	<path fill="#FD7400" d="M103.259,37.557c0,0.851,0.039,1.683,0.136,2.262h-2.146l-0.155-1.045h-0.058
		c-0.581,0.736-1.566,1.258-2.785,1.258c-1.894,0-2.958-1.374-2.958-2.805c0-2.378,2.107-3.576,5.588-3.557v-0.155
		c0-0.618-0.252-1.644-1.914-1.644c-0.93,0-1.896,0.289-2.533,0.696l-0.465-1.547c0.696-0.425,1.915-0.832,3.404-0.832
		c3.017,0,3.887,1.915,3.887,3.964V37.557z M100.938,35.218c-1.683-0.039-3.288,0.328-3.288,1.76c0,0.928,0.599,1.353,1.353,1.353
		c0.948,0,1.644-0.618,1.857-1.295c0.058-0.174,0.078-0.368,0.078-0.523V35.218z"/>
	<path fill="#FD7400" d="M107.822,27.773c0,0.715-0.522,1.275-1.353,1.275c-0.793,0-1.314-0.56-1.314-1.275
		c0-0.735,0.541-1.295,1.333-1.295C107.3,26.478,107.802,27.038,107.822,27.773 M105.288,39.82v-9.417h2.399v9.417H105.288z"/>
	<path fill="#FD7400" d="M109.756,33.438c0-1.278-0.02-2.185-0.077-3.036h2.068l0.077,1.799h0.078
		c0.465-1.336,1.566-2.012,2.572-2.012c0.231,0,0.367,0.019,0.56,0.058v2.243c-0.193-0.039-0.405-0.078-0.696-0.078
		c-1.142,0-1.915,0.735-2.128,1.799c-0.038,0.213-0.076,0.465-0.076,0.735v4.873h-2.378V33.438z"/>
	<path fill="#FD7400" d="M116.156,33.535c0-1.237-0.039-2.244-0.078-3.133h2.09l0.116,1.45h0.037
		c0.696-1.064,1.799-1.663,3.229-1.663c2.165,0,3.964,1.856,3.964,4.795c0,3.404-2.146,5.047-4.293,5.047
		c-1.179,0-2.164-0.503-2.648-1.258h-0.039v4.874h-2.378V33.535z M118.534,35.875c0,0.232,0.02,0.446,0.078,0.657
		c0.232,0.967,1.082,1.663,2.088,1.663c1.508,0,2.398-1.256,2.398-3.113c0-1.663-0.812-3.016-2.34-3.016
		c-0.986,0-1.894,0.715-2.126,1.76c-0.058,0.192-0.097,0.405-0.097,0.599V35.875z"/>
	<path fill="#FD7400" d="M135.647,35.024c0,3.462-2.437,5.009-4.833,5.009c-2.669,0-4.72-1.838-4.72-4.854
		c0-3.094,2.031-4.99,4.873-4.99C133.771,30.189,135.647,32.161,135.647,35.024 M128.551,35.121c0,1.818,0.89,3.191,2.339,3.191
		c1.353,0,2.301-1.334,2.301-3.23c0-1.469-0.657-3.151-2.282-3.151C129.227,31.93,128.551,33.555,128.551,35.121"/>
	<path fill="#FD7400" d="M136.691,33.438c0-1.278-0.02-2.185-0.078-3.036h2.07l0.076,1.799h0.077
		c0.464-1.336,1.566-2.012,2.572-2.012c0.232,0,0.368,0.019,0.561,0.058v2.243c-0.192-0.039-0.405-0.078-0.694-0.078
		c-1.142,0-1.915,0.735-2.128,1.799c-0.039,0.213-0.078,0.465-0.078,0.735v4.873h-2.378V33.438z"/>
	<path fill="#FD7400" d="M145.992,27.985v2.417h2.264v1.779h-2.264v4.158c0,1.14,0.31,1.741,1.219,1.741
		c0.444,0,0.657-0.041,0.929-0.116l0.039,1.816c-0.349,0.135-0.967,0.252-1.721,0.252c-0.87,0-1.605-0.309-2.049-0.793
		c-0.504-0.541-0.736-1.392-0.736-2.63v-4.428h-1.353v-1.779h1.353v-1.74L145.992,27.985z"/>
	<path fill="#FD7400" d="M159.624,39.529c-0.502,0.232-1.489,0.502-2.669,0.502c-2.938,0-4.854-1.894-4.854-4.813
		c0-2.825,1.934-5.028,5.241-5.028c0.87,0,1.759,0.194,2.301,0.444l-0.425,1.78c-0.388-0.175-0.949-0.367-1.799-0.367
		c-1.818,0-2.9,1.333-2.882,3.055c0,1.933,1.258,3.036,2.882,3.036c0.83,0,1.411-0.174,1.875-0.368L159.624,39.529z"/>
	<path fill="#FD7400" d="M169.467,35.024c0,3.462-2.438,5.009-4.834,5.009c-2.67,0-4.719-1.838-4.719-4.854
		c0-3.094,2.029-4.99,4.873-4.99C167.59,30.189,169.467,32.161,169.467,35.024 M162.37,35.121c0,1.818,0.89,3.191,2.34,3.191
		c1.353,0,2.301-1.334,2.301-3.23c0-1.469-0.657-3.151-2.282-3.151C163.047,31.93,162.37,33.555,162.37,35.121"/>
	<path fill="#FD7400" d="M170.492,33.438c0-1.278-0.021-2.185-0.078-3.036h2.07l0.076,1.799h0.077
		c0.464-1.336,1.566-2.012,2.572-2.012c0.232,0,0.366,0.019,0.56,0.058v2.243c-0.193-0.039-0.404-0.078-0.695-0.078
		c-1.142,0-1.915,0.735-2.127,1.799c-0.038,0.213-0.078,0.465-0.078,0.735v4.873h-2.377V33.438z"/>
	<path fill="#FD7400" d="M176.891,33.438c0-1.278-0.018-2.185-0.076-3.036h2.068l0.078,1.799h0.077
		c0.465-1.336,1.565-2.012,2.571-2.012c0.231,0,0.367,0.019,0.561,0.058v2.243c-0.193-0.039-0.405-0.078-0.695-0.078
		c-1.142,0-1.915,0.735-2.127,1.799c-0.039,0.213-0.077,0.465-0.077,0.735v4.873h-2.38V33.438z"/>
	<path fill="#FD7400" d="M185.825,27.773c0,0.715-0.522,1.275-1.354,1.275c-0.793,0-1.314-0.56-1.314-1.275
		c0-0.735,0.541-1.295,1.334-1.295C185.303,26.478,185.806,27.038,185.825,27.773 M183.291,39.82v-9.417h2.398v9.417H183.291z"/>
	<path fill="#FD7400" d="M196.053,26.09v11.08c0,0.967,0.039,2.012,0.078,2.649h-2.125l-0.099-1.489h-0.037
		c-0.562,1.045-1.704,1.7-3.074,1.7c-2.245,0-4.024-1.913-4.024-4.813c-0.02-3.152,1.954-5.028,4.217-5.028
		c1.295,0,2.223,0.541,2.649,1.239h0.038V26.09H196.053z M193.676,34.328c0-0.194-0.02-0.424-0.059-0.618
		c-0.213-0.929-0.967-1.683-2.048-1.683c-1.529,0-2.38,1.354-2.38,3.113c0,1.721,0.851,2.978,2.359,2.978
		c0.967,0,1.816-0.658,2.049-1.683c0.059-0.213,0.078-0.444,0.078-0.696V34.328z"/>
	<path fill="#FD7400" d="M206.689,35.024c0,3.462-2.438,5.009-4.835,5.009c-2.667,0-4.718-1.838-4.718-4.854
		c0-3.094,2.029-4.99,4.873-4.99C204.814,30.189,206.689,32.161,206.689,35.024 M199.592,35.121c0,1.818,0.891,3.191,2.34,3.191
		c1.354,0,2.301-1.334,2.301-3.23c0-1.469-0.656-3.151-2.281-3.151C200.269,31.93,199.592,33.555,199.592,35.121"/>
	<path fill="#FD7400" d="M207.771,33.438c0-1.278-0.02-2.185-0.077-3.036h2.069l0.076,1.799h0.078
		c0.465-1.336,1.565-2.012,2.573-2.012c0.231,0,0.366,0.019,0.561,0.058v2.243c-0.194-0.039-0.407-0.078-0.698-0.078
		c-1.14,0-1.914,0.735-2.126,1.799c-0.038,0.213-0.079,0.465-0.079,0.735v4.873h-2.377V33.438z"/>
	<path fill="#FD7400" d="M99.062,45.889v2.417h2.262v1.778h-2.262v4.159c0,1.14,0.31,1.74,1.219,1.74
		c0.444,0,0.657-0.04,0.929-0.116l0.039,1.816c-0.349,0.136-0.967,0.252-1.721,0.252c-0.871,0-1.605-0.309-2.051-0.793
		c-0.502-0.541-0.734-1.392-0.734-2.63v-4.429h-1.354v-1.778h1.354v-1.741L99.062,45.889z"/>
	<path fill="#FD7400" d="M102.64,51.342c0-1.275-0.02-2.186-0.076-3.036h2.068l0.076,1.8h0.078c0.465-1.336,1.566-2.013,2.572-2.013
		c0.232,0,0.368,0.02,0.562,0.058v2.245c-0.194-0.04-0.407-0.077-0.697-0.077c-1.14,0-1.914,0.732-2.127,1.797
		c-0.039,0.213-0.077,0.465-0.077,0.734v4.873h-2.378V51.342z"/>
	<path fill="#FD7400" d="M116.174,55.461c0,0.851,0.04,1.683,0.137,2.262h-2.146l-0.155-1.044h-0.06
		c-0.578,0.735-1.564,1.258-2.782,1.258c-1.897,0-2.96-1.374-2.96-2.805c0-2.378,2.109-3.578,5.588-3.56V51.42
		c0-0.62-0.252-1.644-1.914-1.644c-0.928,0-1.896,0.288-2.533,0.695l-0.463-1.547c0.694-0.427,1.912-0.831,3.402-0.831
		c3.017,0,3.885,1.913,3.885,3.963V55.461z M113.855,53.121c-1.683-0.039-3.288,0.328-3.288,1.761c0,0.927,0.601,1.353,1.353,1.353
		c0.948,0,1.644-0.619,1.857-1.297c0.058-0.172,0.078-0.366,0.078-0.521V53.121z"/>
	<path fill="#FD7400" d="M117.974,51.109c0-1.082-0.02-1.99-0.078-2.803h2.089l0.116,1.411h0.057
		c0.407-0.735,1.432-1.624,2.999-1.624c1.642,0,3.346,1.063,3.346,4.041v5.588h-2.379v-5.316c0-1.355-0.503-2.379-1.8-2.379
		c-0.946,0-1.604,0.677-1.855,1.393c-0.078,0.213-0.097,0.504-0.097,0.773v5.529h-2.398V51.109z"/>
	<path fill="#FD7400" d="M128.204,55.537c0.541,0.33,1.566,0.678,2.417,0.678c1.043,0,1.508-0.426,1.508-1.045
		c0-0.638-0.388-0.966-1.547-1.373c-1.838-0.638-2.611-1.643-2.592-2.746c0-1.662,1.373-2.957,3.557-2.957
		c1.045,0,1.954,0.271,2.497,0.561l-0.465,1.683c-0.407-0.232-1.161-0.542-1.993-0.542c-0.849,0-1.314,0.406-1.314,0.986
		c0,0.6,0.446,0.889,1.644,1.314c1.702,0.618,2.495,1.488,2.514,2.882c0,1.7-1.335,2.958-3.828,2.958
		c-1.142,0-2.167-0.291-2.863-0.677L128.204,55.537z"/>
	<path fill="#FD7400" d="M135.693,51.439c0-1.238-0.039-2.243-0.078-3.133h2.088l0.118,1.449h0.037
		c0.696-1.063,1.799-1.662,3.229-1.662c2.165,0,3.964,1.857,3.964,4.795c0,3.404-2.146,5.048-4.292,5.048
		c-1.181,0-2.166-0.503-2.65-1.258h-0.039v4.873h-2.378V51.439z M138.071,53.779c0,0.232,0.019,0.445,0.077,0.656
		c0.232,0.967,1.082,1.664,2.088,1.664c1.508,0,2.398-1.259,2.398-3.113c0-1.664-0.812-3.017-2.34-3.017
		c-0.985,0-1.894,0.716-2.126,1.761c-0.058,0.191-0.097,0.404-0.097,0.599V53.779z"/>
	<path fill="#FD7400" d="M155.301,52.928c0,3.461-2.436,5.009-4.834,5.009c-2.669,0-4.72-1.837-4.72-4.854
		c0-3.094,2.031-4.988,4.873-4.988C153.425,48.094,155.301,50.064,155.301,52.928 M148.203,53.024c0,1.816,0.89,3.189,2.341,3.189
		c1.353,0,2.301-1.333,2.301-3.228c0-1.47-0.659-3.152-2.282-3.152C148.881,49.834,148.203,51.459,148.203,53.024"/>
	<path fill="#FD7400" d="M156.383,51.342c0-1.275-0.02-2.186-0.078-3.036h2.07l0.077,1.8h0.077c0.464-1.336,1.566-2.013,2.572-2.013
		c0.231,0,0.367,0.02,0.561,0.058v2.245c-0.193-0.04-0.405-0.077-0.695-0.077c-1.143,0-1.916,0.732-2.129,1.797
		c-0.038,0.213-0.077,0.465-0.077,0.734v4.873h-2.378V51.342z"/>
	<path fill="#FD7400" d="M166.109,45.889v2.417h2.262v1.778h-2.262v4.159c0,1.14,0.31,1.74,1.219,1.74
		c0.443,0,0.655-0.04,0.928-0.116l0.039,1.816c-0.349,0.136-0.967,0.252-1.721,0.252c-0.871,0-1.605-0.309-2.051-0.793
		c-0.504-0.541-0.733-1.392-0.733-2.63v-4.429h-1.354v-1.778h1.354v-1.741L166.109,45.889z"/>
	<path fill="#FD7400" d="M177.15,55.461c0,0.851,0.039,1.683,0.135,2.262h-2.146l-0.155-1.044h-0.06
		c-0.578,0.735-1.564,1.258-2.783,1.258c-1.894,0-2.958-1.374-2.958-2.805c0-2.378,2.108-3.578,5.588-3.56V51.42
		c0-0.62-0.252-1.644-1.915-1.644c-0.927,0-1.894,0.288-2.531,0.695l-0.466-1.547c0.696-0.427,1.916-0.831,3.406-0.831
		c3.014,0,3.885,1.913,3.885,3.963V55.461z M174.83,53.121c-1.683-0.039-3.286,0.328-3.286,1.761c0,0.927,0.598,1.353,1.353,1.353
		c0.947,0,1.645-0.619,1.855-1.297c0.059-0.172,0.078-0.366,0.078-0.521V53.121z"/>
	<path fill="#FD7400" d="M181.676,45.889v2.417h2.263v1.778h-2.263v4.159c0,1.14,0.309,1.74,1.218,1.74
		c0.445,0,0.657-0.04,0.929-0.116l0.039,1.816c-0.35,0.136-0.968,0.252-1.722,0.252c-0.87,0-1.606-0.309-2.051-0.793
		c-0.503-0.541-0.735-1.392-0.735-2.63v-4.429h-1.353v-1.778h1.353v-1.741L181.676,45.889z"/>
	<path fill="#FD7400" d="M187.94,45.676c0,0.716-0.522,1.275-1.354,1.275c-0.792,0-1.315-0.56-1.315-1.275
		c0-0.734,0.542-1.295,1.335-1.295C187.418,44.381,187.921,44.941,187.94,45.676 M185.408,57.723v-9.416h2.398v9.416H185.408z"/>
	<path fill="#FD7400" d="M198.788,52.928c0,3.461-2.437,5.009-4.835,5.009c-2.668,0-4.718-1.837-4.718-4.854
		c0-3.094,2.03-4.988,4.873-4.988C196.912,48.094,198.788,50.064,198.788,52.928 M191.691,53.024c0,1.816,0.89,3.189,2.34,3.189
		c1.354,0,2.301-1.333,2.301-3.228c0-1.47-0.657-3.152-2.281-3.152C192.368,49.834,191.691,51.459,191.691,53.024"/>
	<path fill="#FD7400" d="M200.025,51.109c0-1.082-0.02-1.99-0.078-2.803h2.089l0.116,1.411h0.06
		c0.405-0.735,1.431-1.624,2.995-1.624c1.645,0,3.346,1.063,3.346,4.041v5.588h-2.378v-5.316c0-1.355-0.503-2.379-1.799-2.379
		c-0.946,0-1.604,0.677-1.855,1.393c-0.077,0.213-0.097,0.504-0.097,0.773v5.529h-2.398V51.109z"/>
	<path fill="#FD7400" d="M221.353,55.225c0,0.851,0.037,1.682,0.134,2.262h-2.145l-0.154-1.045h-0.061
		c-0.579,0.736-1.564,1.258-2.783,1.258c-1.895,0-2.958-1.373-2.958-2.805c0-2.377,2.106-3.576,5.587-3.557v-0.154
		c0-0.619-0.249-1.643-1.912-1.643c-0.93,0-1.896,0.287-2.533,0.693l-0.465-1.547c0.697-0.426,1.914-0.83,3.403-0.83
		c3.017,0,3.887,1.912,3.887,3.963V55.225z M219.032,52.885c-1.683-0.039-3.288,0.33-3.288,1.76c0,0.929,0.6,1.354,1.352,1.354
		c0.95,0,1.646-0.619,1.86-1.295c0.057-0.174,0.076-0.368,0.076-0.523V52.885z"/>
	<path fill="#FD7400" d="M223.016,55.303c0.541,0.327,1.566,0.674,2.417,0.674c1.044,0,1.508-0.423,1.508-1.043
		c0-0.637-0.388-0.967-1.548-1.372c-1.836-0.638-2.609-1.644-2.59-2.747c0-1.661,1.372-2.957,3.559-2.957
		c1.045,0,1.951,0.271,2.494,0.561l-0.465,1.682c-0.405-0.23-1.159-0.541-1.992-0.541c-0.85,0-1.314,0.406-1.314,0.986
		c0,0.6,0.443,0.889,1.644,1.314c1.703,0.618,2.496,1.488,2.514,2.883c0,1.699-1.333,2.957-3.828,2.957
		c-1.14,0-2.165-0.291-2.862-0.676L223.016,55.303z"/>
	<path fill="#FD7400" d="M230.537,55.303c0.542,0.327,1.567,0.674,2.417,0.674c1.046,0,1.508-0.423,1.508-1.043
		c0-0.637-0.386-0.967-1.547-1.372c-1.836-0.638-2.609-1.644-2.591-2.747c0-1.661,1.373-2.957,3.559-2.957
		c1.044,0,1.953,0.271,2.494,0.561l-0.463,1.682c-0.407-0.23-1.161-0.541-1.993-0.541c-0.851,0-1.315,0.406-1.315,0.986
		c0,0.6,0.445,0.889,1.645,1.314c1.701,0.618,2.495,1.488,2.513,2.883c0,1.699-1.332,2.957-3.828,2.957
		c-1.14,0-2.165-0.291-2.861-0.676L230.537,55.303z"/>
	<path fill="#FD7400" d="M246.896,52.691c0,3.461-2.437,5.008-4.834,5.008c-2.67,0-4.719-1.836-4.719-4.854
		c0-3.094,2.029-4.988,4.873-4.988C245.02,47.857,246.896,49.828,246.896,52.691 M239.8,52.788c0,1.816,0.89,3.188,2.34,3.188
		c1.353,0,2.301-1.332,2.301-3.227c0-1.471-0.659-3.152-2.282-3.152C240.475,49.598,239.8,51.222,239.8,52.788"/>
	<path fill="#FD7400" d="M255.19,57.197c-0.501,0.232-1.489,0.502-2.667,0.502c-2.939,0-4.854-1.895-4.854-4.814
		c0-2.823,1.932-5.027,5.239-5.027c0.87,0,1.76,0.193,2.301,0.443l-0.425,1.779c-0.386-0.174-0.947-0.366-1.797-0.366
		c-1.82,0-2.902,1.334-2.883,3.054c0,1.934,1.257,3.037,2.883,3.037c0.83,0,1.411-0.174,1.875-0.368L255.19,57.197z"/>
	<path fill="#FD7400" d="M259.098,45.44c0,0.716-0.521,1.275-1.354,1.275c-0.795,0-1.314-0.56-1.314-1.275
		c0-0.735,0.539-1.296,1.334-1.296C258.576,44.145,259.078,44.705,259.098,45.44 M256.564,57.488v-9.419h2.397v9.419H256.564z"/>
	<path fill="#FD7400" d="M268.438,55.225c0,0.851,0.037,1.682,0.135,2.262h-2.146l-0.155-1.045h-0.058
		c-0.58,0.736-1.566,1.258-2.785,1.258c-1.895,0-2.957-1.373-2.957-2.805c0-2.377,2.107-3.576,5.587-3.557v-0.154
		c0-0.619-0.25-1.643-1.913-1.643c-0.929,0-1.896,0.287-2.533,0.693l-0.464-1.547c0.696-0.426,1.915-0.83,3.402-0.83
		c3.018,0,3.888,1.912,3.888,3.963V55.225z M266.115,52.885c-1.682-0.039-3.285,0.33-3.285,1.76c0,0.929,0.598,1.354,1.352,1.354
		c0.949,0,1.644-0.619,1.858-1.295c0.057-0.174,0.075-0.368,0.075-0.523V52.885z"/>
	<path fill="#FD7400" d="M273.175,45.652v2.416h2.262v1.781h-2.262v4.156c0,1.141,0.31,1.742,1.219,1.742
		c0.444,0,0.657-0.041,0.927-0.118l0.041,1.818c-0.35,0.136-0.968,0.251-1.724,0.251c-0.868,0-1.603-0.31-2.049-0.793
		c-0.502-0.541-0.734-1.392-0.734-2.629V49.85h-1.354v-1.781h1.354V46.33L273.175,45.652z"/>
	<path fill="#FD7400" d="M279.381,45.44c0,0.716-0.521,1.275-1.352,1.275c-0.795,0-1.317-0.56-1.317-1.275
		c0-0.735,0.544-1.296,1.335-1.296C278.859,44.145,279.361,44.705,279.381,45.44 M276.85,57.488v-9.419h2.397v9.419H276.85z"/>
	<path fill="#FD7400" d="M289.979,52.691c0,3.461-2.438,5.008-4.835,5.008c-2.667,0-4.716-1.836-4.716-4.854
		c0-3.094,2.027-4.988,4.871-4.988C288.104,47.857,289.979,49.828,289.979,52.691 M282.881,52.788c0,1.816,0.891,3.188,2.34,3.188
		c1.355,0,2.301-1.332,2.301-3.227c0-1.471-0.656-3.152-2.281-3.152C283.559,49.598,282.881,51.222,282.881,52.788"/>
	<path fill="#FD7400" d="M291.004,50.873c0-1.082-0.02-1.991-0.078-2.803h2.086l0.118,1.412h0.058
		c0.407-0.736,1.432-1.626,2.999-1.626c1.642,0,3.344,1.063,3.344,4.041v5.589h-2.378V52.17c0-1.355-0.504-2.379-1.799-2.379
		c-0.946,0-1.604,0.676-1.857,1.393c-0.075,0.213-0.097,0.503-0.097,0.772v5.53h-2.396V50.873z"/>
</g>
</svg>
