<svg xmlns="http://www.w3.org/2000/svg" xmlns:xlink="http://www.w3.org/1999/xlink" version="1.1" id="Layer_1" x="0px" y="0px" width="174.759px" height="42.125px" viewBox="0 0 174.759 42.125" enable-background="new 0 0 174.759 42.125" xml:space="preserve">
<g>
	<g>
		<g>
			<path fill="#633513" d="M9.241 21.552c-0.234 0.045-0.479 0.083-0.734 0.112c-0.255 0.031-0.511 0.068-0.767 0.1 c-0.241 0.045-0.478 0.106-0.711 0.181c-0.233 0.075-0.436 0.176-0.608 0.303c-0.174 0.128-0.313 0.29-0.418 0.5 c-0.105 0.195-0.157 0.443-0.157 0.743c0 0.3 0.1 0.5 0.2 0.721c0.104 0.2 0.2 0.3 0.4 0.5 s0.392 0.2 0.6 0.236c0.24 0 0.5 0.1 0.7 0.068c0.631 0 1.119-0.106 1.466-0.316s0.603-0.461 0.768-0.754 s0.267-0.589 0.305-0.889c0.037-0.3 0.057-0.54 0.057-0.721v-1.191c-0.136 0.119-0.305 0.212-0.507 0.3 C9.692 21.4 9.5 21.5 9.2 21.6"/>
		</g>
		<g>
			<path fill="#633513" d="M41.509 25.771c0 0-0.003 0.002-0.006 0.006l-0.002 0.002c-0.517 0.521-1.13 0.893-1.824 1.1 c-0.701 0.211-1.425 0.319-2.152 0.319c-0.563 0-1.097-0.07-1.587-0.208c-0.492-0.138-0.93-0.357-1.302-0.651 c-0.373-0.296-0.669-0.675-0.878-1.124c-0.209-0.447-0.315-0.987-0.315-1.603c0-0.678 0.122-1.247 0.363-1.69 c0.24-0.442 0.556-0.8 0.938-1.064c0.378-0.263 0.814-0.46 1.298-0.592c0.47-0.127 0.956-0.229 1.443-0.305 c0.484-0.077 0.965-0.138 1.429-0.183c0.455-0.044 0.866-0.111 1.223-0.199c0.343-0.086 0.616-0.211 0.811-0.372 c0.179-0.146 0.264-0.369 0.251-0.663c0-0.322-0.053-0.58-0.155-0.765c-0.102-0.183-0.239-0.328-0.409-0.43 c-0.173-0.103-0.378-0.174-0.609-0.21c-0.239-0.035-0.504-0.054-0.784-0.054c-0.603 0-1.08 0.129-1.418 0.4 c-0.306 0.23-0.495 0.615-0.567 1.143h0.02l-0.021 0.02c-0.005 0.035-0.011 0.071-0.015 0.108l-0.005 0.053l-0.005 0.054h-0.054 h-0.053h-0.106L36.99 18.87l0.002-0.022h-2.956l-0.001 0.025l-0.023-0.025h-0.085h-0.062h-0.062l0.004-0.062l0.004-0.062 c0.001-0.028 0.005-0.056 0.007-0.084l-0.025-0.026h0.026c0.059-0.72 0.25-1.333 0.573-1.818c0.34-0.51 0.777-0.923 1.299-1.231 c0.521-0.306 1.112-0.526 1.76-0.655c0.639-0.129 1.294-0.194 1.947-0.194c0.588 0 1.2 0 1.8 0.1 C38.535 6.2 30.5 0 21.1 0C9.429 0 0 9.4 0 21.062s9.429 21.1 21.1 21.062c10.073 0 18.494-7.072 20.571-16.521 c-0.07 0.095-0.121 0.164-0.122 0.164L41.509 25.771z M10.76 26.791c-0.06-0.18-0.108-0.363-0.146-0.549 c-0.038-0.188-0.065-0.378-0.079-0.573c-0.511 0.523-1.112 0.892-1.803 1.101s-1.396 0.315-2.117 0.3 c-0.557 0-1.074-0.068-1.556-0.204c-0.48-0.135-0.901-0.346-1.261-0.631c-0.361-0.285-0.643-0.646-0.844-1.08 c-0.204-0.436-0.305-0.953-0.305-1.554c0-0.662 0.115-1.205 0.349-1.634c0.232-0.427 0.533-0.769 0.901-1.024 c0.368-0.256 0.789-0.447 1.263-0.574c0.474-0.128 0.949-0.229 1.431-0.304c0.481-0.075 0.954-0.136 1.42-0.181 c0.466-0.044 0.879-0.112 1.239-0.202c0.361-0.09 0.646-0.221 0.856-0.395c0.211-0.172 0.309-0.424 0.294-0.754 c0-0.346-0.057-0.619-0.17-0.823c-0.112-0.202-0.263-0.36-0.45-0.472c-0.188-0.113-0.406-0.188-0.653-0.226 c-0.248-0.037-0.515-0.056-0.8-0.056c-0.632 0-1.127 0.135-1.488 0.406c-0.359 0.269-0.57 0.722-0.63 1.353H3.017 c0.045-0.752 0.232-1.375 0.562-1.871c0.331-0.496 0.751-0.894 1.261-1.195c0.51-0.3 1.084-0.515 1.723-0.642 c0.638-0.128 1.279-0.191 1.925-0.191c0.585 0 1.2 0 1.8 0.124c0.602 0.1 1.1 0.2 1.6 0.5 c0.495 0.2 0.9 0.6 1.2 1.002c0.315 0.4 0.5 1 0.5 1.7v6.06c0 0.5 0 1 0.1 1.5 c0.061 0.5 0.2 0.8 0.3 1.081L10.76 26.791z M24.232 25.867c-0.991 0.812-2.26 1.218-3.805 1.2 c-0.871 0-1.67-0.147-2.398-0.439c-0.727-0.292-1.346-0.701-1.854-1.227c-0.511-0.524-0.908-1.15-1.193-1.878 c-0.285-0.727-0.429-1.526-0.429-2.396c0-0.899 0.133-1.735 0.395-2.507c0.262-0.772 0.649-1.44 1.159-2.002 c0.51-0.563 1.132-1.002 1.867-1.316c0.736-0.314 1.576-0.473 2.521-0.473c0.69 0 1.4 0.1 2 0.3 c0.64 0.2 1.2 0.5 1.7 0.821s0.911 0.8 1.2 1.373c0.316 0.5 0.5 1.2 0.5 1.947h-3.129 c-0.21-1.339-0.998-2.008-2.363-2.008c-0.51 0-0.938 0.116-1.283 0.348c-0.346 0.233-0.627 0.533-0.844 0.9 c-0.218 0.367-0.372 0.771-0.462 1.214s-0.135 0.881-0.135 1.315c0 0.4 0 0.8 0.1 1.3 c0.09 0.4 0.2 0.8 0.4 1.182c0.202 0.4 0.5 0.6 0.8 0.865c0.346 0.2 0.8 0.3 1.3 0.3 c0.767 0 1.354-0.215 1.767-0.642c0.413-0.428 0.672-1.002 0.776-1.723h3.085C25.822 23.9 25.2 25.1 24.2 25.9 M33.273 17.294h-2.342v5.758c0 0.5 0.1 0.9 0.3 1.08c0.18 0.2 0.5 0.3 1.1 0.271c0.122 0 0.236-0.008 0.352-0.016 v2.479c-0.086 0.007-0.171 0.014-0.262 0.02c-0.33 0.016-0.654 0.023-0.969 0.023c-0.494 0-0.964-0.033-1.405-0.102 c-0.442-0.067-0.834-0.198-1.171-0.394s-0.604-0.473-0.799-0.833c-0.195-0.361-0.293-0.834-0.293-1.419v-6.867h-1.497v-2.14 h1.497v-3.488h3.195v3.488h2.342V17.294z"/>
		</g>
		<g>
			<path fill="#633513" d="M40.174 21.667c-0.238 0.046-0.487 0.084-0.743 0.114c-0.252 0.028-0.508 0.067-0.759 0.1 c-0.234 0.043-0.469 0.103-0.697 0.176c-0.219 0.071-0.414 0.168-0.575 0.286c-0.158 0.117-0.288 0.268-0.384 0.4 c-0.096 0.176-0.144 0.407-0.144 0.687c0 0.3 0 0.5 0.1 0.665c0.095 0.2 0.2 0.3 0.4 0.4 c0.166 0.1 0.4 0.2 0.6 0.221c0.233 0 0.5 0.1 0.7 0.065c0.606 0 1.08-0.101 1.406-0.299 c0.327-0.199 0.573-0.438 0.726-0.712c0.157-0.277 0.255-0.562 0.291-0.845c0.037-0.302 0.056-0.533 0.056-0.706v-0.964 c-0.105 0.064-0.223 0.12-0.354 0.164C40.64 21.6 40.4 21.6 40.2 21.7"/>
		</g>
		<g>
			<path fill="#633513" d="M57.796 19.572c0 0.5 0 1 0.1 1.348h-1.279l-0.092-0.623h-0.035 c-0.346 0.438-0.934 0.75-1.659 0.75c-1.129 0-1.763-0.819-1.763-1.671c0-1.417 1.256-2.131 3.33-2.12v-0.092 c0-0.369-0.15-0.979-1.141-0.979c-0.554 0-1.13 0.172-1.51 0.415l-0.277-0.921c0.415-0.253 1.142-0.496 2.029-0.496 c1.797 0 2.3 1.1 2.3 2.362V19.572z M56.413 18.178c-1.003-0.023-1.959 0.195-1.959 1.049c0 0.6 0.4 0.8 0.8 0.8 c0.564 0 0.979-0.368 1.106-0.771c0.034-0.104 0.046-0.22 0.046-0.312V18.178z"/>
		</g>
		<g>
			<path fill="#633513" d="M60.516 13.742c0 0.426-0.312 0.76-0.807 0.76c-0.473 0-0.783-0.334-0.783-0.76 c0-0.438 0.322-0.772 0.795-0.772C60.204 13 60.5 13.3 60.5 13.7 M59.006 20.921v-5.612h1.43v5.612H59.006z"/>
		</g>
		<g>
			<path fill="#633513" d="M61.668 17.118c0-0.762-0.012-1.302-0.046-1.81h1.232l0.046 1.072h0.046 c0.277-0.796 0.934-1.199 1.533-1.199c0.138 0 0.2 0 0.3 0.035v1.336c-0.115-0.023-0.241-0.046-0.415-0.046 c-0.68 0-1.141 0.438-1.268 1.072c-0.022 0.127-0.046 0.277-0.046 0.438v2.904h-1.417V17.118z"/>
		</g>
		<g>
			<path fill="#633513" d="M65.481 17.176c0-0.737-0.022-1.337-0.046-1.867h1.245l0.069 0.864h0.022 c0.414-0.634 1.071-0.991 1.924-0.991c1.29 0 2.4 1.1 2.4 2.858c0 2.028-1.278 3.007-2.559 3 c-0.702 0-1.289-0.3-1.578-0.75h-0.022v2.904h-1.418V17.176z M66.899 18.569c0 0.1 0 0.3 0 0.4 c0.139 0.6 0.6 1 1.2 0.991c0.898 0 1.429-0.748 1.429-1.855c0-0.991-0.483-1.797-1.395-1.797 c-0.587 0-1.128 0.426-1.267 1.049c-0.035 0.114-0.058 0.242-0.058 0.357V18.569z"/>
		</g>
		<g>
			<path fill="#633513" d="M77.097 18.062c0 2.063-1.452 2.985-2.88 2.985c-1.59 0-2.812-1.095-2.812-2.892 c0-1.844 1.211-2.974 2.904-2.974C75.979 15.2 77.1 16.4 77.1 18.1 M72.868 18.121c0 1.1 0.5 1.9 1.4 1.9 c0.807 0 1.372-0.794 1.372-1.924c0-0.876-0.392-1.879-1.36-1.879C73.271 16.2 72.9 17.2 72.9 18.1"/>
		</g>
		<g>
			<path fill="#633513" d="M77.719 17.118c0-0.762-0.011-1.302-0.046-1.81h1.233l0.046 1.072h0.046 c0.276-0.796 0.934-1.199 1.533-1.199c0.139 0 0.2 0 0.3 0.035v1.336c-0.115-0.023-0.242-0.046-0.414-0.046 c-0.681 0-1.142 0.438-1.269 1.072c-0.022 0.127-0.046 0.277-0.046 0.438v2.904h-1.418V17.118z"/>
		</g>
		<g>
			<path fill="#633513" d="M83.262 13.868v1.44h1.349v1.061h-1.349v2.478c0 0.7 0.2 1 0.7 1 c0.265 0 0.392-0.024 0.553-0.069l0.023 1.082c-0.208 0.081-0.576 0.15-1.025 0.15c-0.52 0-0.957-0.184-1.222-0.472 c-0.3-0.323-0.438-0.829-0.438-1.567v-2.639h-0.807v-1.061h0.807v-1.037L83.262 13.868z"/>
		</g>
		<g>
			<path fill="#633513" d="M91.386 20.748c-0.3 0.138-0.888 0.299-1.591 0.299c-1.751 0-2.893-1.129-2.893-2.868 c0-1.683 1.153-2.997 3.123-2.997c0.519 0 1 0.1 1.4 0.265l-0.253 1.06c-0.23-0.104-0.565-0.218-1.071-0.218 c-1.084 0-1.729 0.795-1.718 1.821c0 1.2 0.7 1.8 1.7 1.809c0.494 0 0.841-0.104 1.117-0.219L91.386 20.748z"/>
		</g>
		<g>
			<path fill="#633513" d="M97.251 18.062c0 2.063-1.452 2.985-2.881 2.985c-1.591 0-2.812-1.095-2.812-2.892 c0-1.844 1.209-2.974 2.903-2.974C96.133 15.2 97.3 16.4 97.3 18.1 M93.021 18.121c0 1.1 0.5 1.9 1.4 1.9 c0.807 0 1.371-0.794 1.371-1.924c0-0.876-0.392-1.879-1.359-1.879C93.425 16.2 93 17.2 93 18.1"/>
		</g>
		<g>
			<path fill="#633513" d="M97.861 17.118c0-0.762-0.012-1.302-0.046-1.81h1.233l0.046 1.072h0.046 c0.276-0.796 0.934-1.199 1.533-1.199c0.138 0 0.2 0 0.3 0.035v1.336c-0.115-0.023-0.241-0.046-0.414-0.046 c-0.681 0-1.142 0.438-1.268 1.072c-0.023 0.127-0.047 0.277-0.047 0.438v2.904h-1.417V17.118z"/>
		</g>
		<g>
			<path fill="#633513" d="M101.675 17.118c0-0.762-0.011-1.302-0.046-1.81h1.233l0.046 1.072h0.046 c0.277-0.796 0.934-1.199 1.533-1.199c0.138 0 0.2 0 0.3 0.035v1.336c-0.115-0.023-0.241-0.046-0.415-0.046 c-0.68 0-1.141 0.438-1.267 1.072c-0.023 0.127-0.047 0.277-0.047 0.438v2.904h-1.418V17.118z"/>
		</g>
		<g>
			<path fill="#633513" d="M106.999 13.742c0 0.426-0.311 0.76-0.808 0.76c-0.473 0-0.783-0.334-0.783-0.76 c0-0.438 0.322-0.772 0.795-0.772C106.688 13 107 13.3 107 13.7 M105.489 20.921v-5.612h1.429v5.612H105.489z"/>
		</g>
		<g>
			<path fill="#633513" d="M113.094 12.739v6.603c0 0.6 0 1.2 0 1.579h-1.267l-0.059-0.887h-0.022 c-0.334 0.623-1.015 1.014-1.832 1.014c-1.337 0-2.397-1.141-2.397-2.869c-0.012-1.878 1.164-2.997 2.513-2.997 c0.771 0 1.3 0.3 1.6 0.738h0.023v-3.181H113.094z M111.678 17.648c0-0.116-0.012-0.253-0.035-0.369 c-0.126-0.553-0.576-1.003-1.221-1.003c-0.911 0-1.418 0.807-1.418 1.855c0 1 0.5 1.8 1.4 1.8 c0.576 0 1.082-0.392 1.221-1.003c0.035-0.127 0.047-0.265 0.047-0.414V17.648z"/>
		</g>
		<g>
			<path fill="#633513" d="M119.433 18.062c0 2.063-1.452 2.985-2.881 2.985c-1.59 0-2.812-1.095-2.812-2.892 c0-1.844 1.209-2.974 2.903-2.974C118.315 15.2 119.4 16.4 119.4 18.1 M115.203 18.121c0 1.1 0.5 1.9 1.4 1.9 c0.807 0 1.371-0.794 1.371-1.924c0-0.876-0.392-1.879-1.359-1.879C115.606 16.2 115.2 17.2 115.2 18.1"/>
		</g>
		<g>
			<path fill="#633513" d="M120.077 17.118c0-0.762-0.011-1.302-0.046-1.81h1.233l0.046 1.072h0.046 c0.277-0.796 0.934-1.199 1.533-1.199c0.138 0 0.2 0 0.3 0.035v1.336c-0.115-0.023-0.242-0.046-0.415-0.046 c-0.68 0-1.142 0.438-1.268 1.072c-0.023 0.127-0.047 0.277-0.047 0.438v2.904h-1.417V17.118z"/>
		</g>
		<g>
			<path fill="#633513" d="M55.295 24.537v1.44h1.349v1.061h-1.349v2.478c0 0.7 0.2 1 0.7 1 c0.265 0 0.392-0.023 0.554-0.068l0.022 1.082c-0.207 0.08-0.576 0.15-1.025 0.15c-0.519 0-0.956-0.184-1.222-0.473 c-0.3-0.322-0.438-0.829-0.438-1.567v-2.639h-0.806v-1.061h0.806V24.94L55.295 24.537z"/>
		</g>
		<g>
			<path fill="#633513" d="M57.428 27.787c0-0.761-0.012-1.302-0.046-1.81h1.232l0.046 1.072h0.046 c0.277-0.796 0.934-1.199 1.533-1.199c0.138 0 0.2 0 0.3 0.035v1.337c-0.116-0.023-0.243-0.046-0.416-0.046 c-0.68 0-1.141 0.437-1.268 1.071c-0.022 0.127-0.046 0.276-0.046 0.438v2.904h-1.417V27.787z"/>
		</g>
		<g>
			<path fill="#633513" d="M65.492 30.242c0 0.5 0 1 0.1 1.348h-1.278l-0.093-0.622h-0.035 c-0.345 0.438-0.933 0.749-1.658 0.749c-1.131 0-1.764-0.818-1.764-1.672c0-1.417 1.257-2.132 3.33-2.12v-0.091 c0-0.37-0.15-0.98-1.141-0.98c-0.553 0-1.129 0.172-1.51 0.415l-0.275-0.922c0.413-0.254 1.139-0.495 2.027-0.495 c1.797 0 2.3 1.1 2.3 2.361V30.242z M64.111 28.848c-1.003-0.024-1.96 0.195-1.96 1.049c0 0.6 0.4 0.8 0.8 0.8 c0.565 0 0.979-0.37 1.106-0.773c0.035-0.103 0.047-0.219 0.047-0.311V28.848z"/>
		</g>
		<g>
			<path fill="#633513" d="M66.565 27.648c0-0.645-0.012-1.187-0.046-1.671h1.245l0.069 0.841h0.033 c0.242-0.437 0.854-0.968 1.787-0.968c0.979 0 2 0.6 2 2.409v3.33H70.23v-3.169c0-0.808-0.301-1.417-1.073-1.417 c-0.563 0-0.955 0.403-1.105 0.829c-0.046 0.127-0.058 0.301-0.058 0.461v3.296h-1.429V27.648z"/>
		</g>
		<g>
			<path fill="#633513" d="M72.661 30.287c0.322 0.2 0.9 0.4 1.4 0.403c0.622 0 0.898-0.253 0.898-0.622 c0-0.381-0.23-0.576-0.922-0.818c-1.095-0.38-1.556-0.979-1.544-1.637c0-0.99 0.817-1.762 2.12-1.762 c0.622 0 1.2 0.2 1.5 0.334l-0.277 1.003c-0.242-0.139-0.691-0.323-1.188-0.323c-0.506 0-0.783 0.242-0.783 0.6 c0 0.4 0.3 0.5 1 0.783c1.015 0.4 1.5 0.9 1.5 1.717c0 1.014-0.795 1.764-2.281 1.8 c-0.68 0-1.291-0.174-1.706-0.403L72.661 30.287z"/>
		</g>
		<g>
			<path fill="#633513" d="M77.124 27.845c0-0.737-0.022-1.337-0.046-1.866h1.244l0.07 0.863h0.021 c0.415-0.634 1.072-0.99 1.925-0.99c1.29 0 2.4 1.1 2.4 2.857c0 2.028-1.279 3.008-2.558 3 c-0.703 0-1.29-0.3-1.579-0.749h-0.023v2.903h-1.417V27.845z M78.541 29.239c0 0.1 0 0.3 0 0.4 c0.139 0.6 0.6 1 1.2 0.991c0.898 0 1.429-0.75 1.429-1.855c0-0.991-0.484-1.798-1.395-1.798 c-0.587 0-1.128 0.427-1.267 1.049c-0.035 0.115-0.059 0.242-0.059 0.357V29.239z"/>
		</g>
		<g>
			<path fill="#633513" d="M88.81 28.732c0 2.062-1.452 2.984-2.881 2.984c-1.591 0-2.813-1.095-2.813-2.894 c0-1.843 1.211-2.972 2.904-2.972C87.691 25.9 88.8 27 88.8 28.7 M84.579 28.79c0 1.1 0.5 1.9 1.4 1.9 c0.807 0 1.371-0.795 1.371-1.924c0-0.876-0.393-1.878-1.359-1.878C84.983 26.9 84.6 27.9 84.6 28.8"/>
		</g>
		<g>
			<path fill="#633513" d="M89.453 27.787c0-0.761-0.012-1.302-0.046-1.81h1.233l0.047 1.072h0.046 c0.276-0.796 0.934-1.199 1.532-1.199c0.138 0 0.2 0 0.3 0.035v1.337c-0.115-0.023-0.241-0.046-0.414-0.046 c-0.681 0-1.142 0.437-1.269 1.071c-0.023 0.127-0.046 0.276-0.046 0.438v2.904h-1.418V27.787z"/>
		</g>
		<g>
			<path fill="#633513" d="M95.25 24.537v1.44h1.348v1.061H95.25v2.478c0 0.7 0.2 1 0.7 1 c0.265 0 0.391-0.023 0.553-0.068l0.023 1.082c-0.208 0.08-0.576 0.15-1.025 0.15c-0.52 0-0.957-0.184-1.223-0.473 c-0.3-0.322-0.437-0.829-0.437-1.567v-2.639h-0.808v-1.061h0.808V24.94L95.25 24.537z"/>
		</g>
		<g>
			<path fill="#633513" d="M101.83 30.242c0 0.5 0 1 0.1 1.348h-1.278l-0.093-0.622h-0.035 c-0.345 0.438-0.933 0.749-1.659 0.749c-1.129 0-1.763-0.818-1.763-1.672c0-1.417 1.257-2.132 3.33-2.12v-0.091 c0-0.37-0.15-0.98-1.141-0.98c-0.553 0-1.129 0.172-1.51 0.415l-0.276-0.922c0.415-0.254 1.141-0.495 2.029-0.495 c1.796 0 2.3 1.1 2.3 2.361V30.242z M100.447 28.848c-1.003-0.024-1.959 0.195-1.959 1.049c0 0.6 0.4 0.8 0.8 0.8 c0.564 0 0.979-0.37 1.105-0.773c0.035-0.103 0.047-0.219 0.047-0.311V28.848z"/>
		</g>
		<g>
			<path fill="#633513" d="M104.526 24.537v1.44h1.349v1.061h-1.349v2.478c0 0.7 0.2 1 0.7 1 c0.266 0 0.392-0.023 0.554-0.068l0.022 1.082c-0.207 0.08-0.576 0.15-1.025 0.15c-0.519 0-0.957-0.184-1.222-0.473 c-0.3-0.322-0.438-0.829-0.438-1.567v-2.639h-0.806v-1.061h0.806V24.94L104.526 24.537z"/>
		</g>
		<g>
			<path fill="#633513" d="M108.26 24.41c0 0.427-0.311 0.761-0.807 0.761c-0.473 0-0.784-0.334-0.784-0.761 c0-0.438 0.323-0.771 0.796-0.771C107.949 23.6 108.2 24 108.3 24.4 M106.751 31.59v-5.611h1.429v5.611H106.751z"/>
		</g>
		<g>
			<path fill="#633513" d="M114.724 28.732c0 2.062-1.451 2.984-2.88 2.984c-1.591 0-2.812-1.095-2.812-2.894 c0-1.843 1.21-2.972 2.904-2.972C113.605 25.9 114.7 27 114.7 28.7 M110.495 28.79c0 1.1 0.5 1.9 1.4 1.9 c0.806 0 1.371-0.795 1.371-1.924c0-0.876-0.392-1.878-1.36-1.878C110.898 26.9 110.5 27.9 110.5 28.8"/>
		</g>
		<g>
			<path fill="#633513" d="M115.462 27.648c0-0.645-0.012-1.187-0.048-1.671h1.246l0.068 0.841h0.036 c0.241-0.437 0.853-0.968 1.785-0.968c0.979 0 2 0.6 2 2.409v3.33h-1.417v-3.169c0-0.808-0.3-1.417-1.072-1.417 c-0.563 0-0.955 0.403-1.105 0.829c-0.046 0.127-0.058 0.301-0.058 0.461v3.296h-1.429V27.648z"/>
		</g>
		<g>
			<path fill="#633513" d="M128.171 30.101c0 0.5 0 1 0.1 1.349h-1.278l-0.092-0.623h-0.036 c-0.346 0.439-0.933 0.75-1.659 0.75c-1.128 0-1.763-0.819-1.763-1.672c0-1.418 1.256-2.131 3.329-2.119v-0.093 c0-0.368-0.147-0.979-1.139-0.979c-0.555 0-1.13 0.171-1.51 0.413l-0.277-0.922c0.416-0.253 1.142-0.495 2.028-0.495 c1.798 0 2.3 1.1 2.3 2.362V30.101z M126.788 28.707c-1.003-0.023-1.959 0.195-1.959 1 c0 0.6 0.4 0.8 0.8 0.806c0.565 0 0.98-0.368 1.108-0.771c0.033-0.104 0.045-0.22 0.045-0.312V28.707z"/>
		</g>
		<g>
			<path fill="#633513" d="M129.161 30.146c0.323 0.2 0.9 0.4 1.4 0.402c0.623 0 0.899-0.252 0.899-0.621 c0-0.381-0.231-0.576-0.923-0.818c-1.094-0.38-1.555-0.979-1.544-1.637c0-0.99 0.818-1.763 2.121-1.763 c0.622 0 1.2 0.2 1.5 0.335l-0.276 1.002c-0.242-0.138-0.691-0.322-1.188-0.322c-0.507 0-0.783 0.241-0.783 0.6 c0 0.4 0.3 0.5 1 0.783c1.015 0.4 1.5 0.9 1.5 1.717c0 1.014-0.795 1.764-2.281 1.8 c-0.68 0-1.29-0.174-1.706-0.403L129.161 30.146z"/>
		</g>
		<g>
			<path fill="#633513" d="M133.644 30.146c0.323 0.2 0.9 0.4 1.4 0.402c0.624 0 0.898-0.252 0.898-0.621 c0-0.381-0.229-0.576-0.921-0.818c-1.095-0.38-1.556-0.979-1.545-1.637c0-0.99 0.819-1.763 2.121-1.763 c0.622 0 1.2 0.2 1.5 0.335l-0.276 1.002c-0.242-0.138-0.691-0.322-1.188-0.322c-0.507 0-0.784 0.241-0.784 0.6 c0 0.4 0.3 0.5 1 0.783c1.014 0.4 1.5 0.9 1.5 1.717c0 1.014-0.793 1.764-2.281 1.8 c-0.679 0-1.29-0.174-1.705-0.403L133.644 30.146z"/>
		</g>
		<g>
			<path fill="#633513" d="M143.393 28.591c0 2.063-1.452 2.985-2.881 2.985c-1.59 0-2.812-1.096-2.812-2.893 c0-1.844 1.21-2.974 2.904-2.974C142.274 25.7 143.4 26.9 143.4 28.6 M139.164 28.648c0 1.1 0.5 1.9 1.4 1.9 c0.806 0 1.371-0.793 1.371-1.923c0-0.876-0.393-1.878-1.36-1.878C139.566 26.7 139.2 27.7 139.2 28.6"/>
		</g>
		<g>
			<path fill="#633513" d="M148.336 31.275c-0.299 0.14-0.888 0.3-1.59 0.3c-1.752 0-2.893-1.129-2.893-2.868 c0-1.684 1.151-2.997 3.122-2.997c0.519 0 1 0.1 1.4 0.265l-0.253 1.061c-0.229-0.104-0.564-0.218-1.07-0.218 c-1.085 0-1.729 0.794-1.718 1.819c0 1.2 0.7 1.8 1.7 1.81c0.494 0 0.841-0.104 1.117-0.22L148.336 31.275z"/>
		</g>
		<g>
			<path fill="#633513" d="M150.664 24.271c0 0.427-0.312 0.76-0.807 0.76c-0.474 0-0.783-0.333-0.783-0.76 c0-0.438 0.321-0.772 0.795-0.772C150.353 23.5 150.7 23.8 150.7 24.3 M149.154 31.449v-5.612h1.429v5.612H149.154z"/>
		</g>
		<g>
			<path fill="#633513" d="M156.229 30.101c0 0.5 0 1 0.1 1.349h-1.278l-0.093-0.623h-0.034 c-0.346 0.439-0.934 0.75-1.66 0.75c-1.129 0-1.762-0.819-1.762-1.672c0-1.418 1.256-2.131 3.329-2.119v-0.093 c0-0.368-0.149-0.979-1.141-0.979c-0.553 0-1.13 0.171-1.51 0.413l-0.275-0.922c0.414-0.253 1.141-0.495 2.027-0.495 c1.798 0 2.3 1.1 2.3 2.362V30.101z M154.846 28.707c-1.002-0.023-1.958 0.195-1.958 1 c0 0.6 0.4 0.8 0.8 0.806c0.566 0 0.979-0.368 1.107-0.771c0.034-0.104 0.045-0.22 0.045-0.312V28.707z"/>
		</g>
		<g>
			<path fill="#633513" d="M159.053 24.396v1.439h1.348v1.062h-1.348v2.477c0 0.7 0.2 1 0.7 1 c0.265 0 0.392-0.023 0.552-0.07l0.024 1.084c-0.208 0.081-0.576 0.15-1.027 0.15c-0.518 0-0.955-0.186-1.221-0.473 c-0.299-0.324-0.438-0.83-0.438-1.567v-2.639h-0.807v-1.062h0.807V24.8L159.053 24.396z"/>
		</g>
		<g>
			<path fill="#633513" d="M162.751 24.271c0 0.427-0.311 0.76-0.806 0.76c-0.473 0-0.785-0.333-0.785-0.76 c0-0.438 0.324-0.772 0.796-0.772C162.44 23.5 162.7 23.8 162.8 24.3 M161.242 31.449v-5.612h1.429v5.612H161.242z"/>
		</g>
		<g>
			<path fill="#633513" d="M169.066 28.591c0 2.063-1.452 2.985-2.881 2.985c-1.59 0-2.811-1.096-2.811-2.893 c0-1.844 1.208-2.974 2.902-2.974C167.949 25.7 169.1 26.9 169.1 28.6 M164.837 28.648c0 1.1 0.5 1.9 1.4 1.9 c0.808 0 1.371-0.793 1.371-1.923c0-0.876-0.392-1.878-1.359-1.878C165.24 26.7 164.8 27.7 164.8 28.6"/>
		</g>
		<g>
			<path fill="#633513" d="M169.678 27.508c0-0.645-0.012-1.188-0.047-1.671h1.243l0.07 0.843h0.034 c0.243-0.439 0.854-0.97 1.787-0.97c0.979 0 2 0.6 2 2.408v3.331h-1.417v-3.17c0-0.807-0.301-1.416-1.072-1.416 c-0.564 0-0.955 0.402-1.106 0.829c-0.046 0.127-0.058 0.3-0.058 0.46v3.297h-1.428V27.508z"/>
		</g>
	</g>
</g>
</svg>
