<svg version="1.1" id="Layer_1" xmlns="http://www.w3.org/2000/svg" xmlns:xlink="http://www.w3.org/1999/xlink" x="0px" y="0px"
	 width="25.939px" height="25.939px" viewBox="0 0 27 27" enable-background="new 0 0 25.939 25.939" xml:space="preserve">
<g id="Layer_2">
</g>
<g id="Layer_3">
	<g>
		<path fill="#FFFFFF" d="M12.97-0.001c-7.152,0-12.971,5.818-12.971,12.97c0,7.152,5.818,12.971,12.971,12.971
			c7.151,0,12.97-5.818,12.97-12.971C25.94,5.817,20.121-0.001,12.97-0.001z M11.648,17.624c-0.191,0.179-0.436,0.265-0.678,0.265
			c-0.27,0-0.537-0.107-0.734-0.32c-0.375-0.407-0.35-1.039,0.057-1.414l3.248-2.998l-3.29-3.413
			c-0.384-0.396-0.372-1.03,0.026-1.414c0.396-0.383,1.03-0.371,1.413,0.026l4.71,4.885L11.648,17.624z"/>
	</g>
</g>
</svg>