<?xml version="1.0" encoding="utf-8"?>
<!-- Generator: Adobe Illustrator 18.1.1, SVG Export Plug-In . SVG Version: 6.00 Build 0)  -->
<svg version="1.0" id="Layer_1" xmlns="http://www.w3.org/2000/svg" xmlns:xlink="http://www.w3.org/1999/xlink" x="0px" y="0px"
	 width="80px" height="80px" viewBox="0 0 80 80" enable-background="new 0 0 80 80" xml:space="preserve">
<circle fill="#F47521" stroke="#F47C29" stroke-miterlimit="10" cx="40" cy="40" r="39.3"/>
<g>
	<path fill="#FAFAFA" d="M65.5,39.2c-3.2-1.6-5.5-5.7-7.4-8.9c-1.7-2.9-2.8-4.8-4.3-4.8h-8.5h-5.6H21.7c-2.9,0-5.2,2.3-5.2,5.2v17.2
		c0,3.3,3.1,3.5,4.9,3.5c0,2.8,2.3,5.1,5.1,5.1c2.8,0,5.1-2.3,5.1-5.1h18.4c0,2.8,2.3,5.1,5.1,5.1c2.8,0,5.1-2.3,5.1-5.1h0.4
		c1.8,0,5.2,0,5.2-3.5V40C66,39.7,65.8,39.4,65.5,39.2z M56.6,31.2c1.1,1.9,2.4,4.2,3.9,6.1h-8l0-10h1.3
		C54.4,27.3,55.7,29.6,56.6,31.2z M43.7,25.5h-2.2 M26.6,54.7c-1.9,0-3.4-1.5-3.4-3.4c0-1.9,1.5-3.4,3.4-3.4c1.9,0,3.4,1.5,3.4,3.4
		C30,53.2,28.4,54.7,26.6,54.7z M55.2,54.7c-1.9,0-3.4-1.5-3.4-3.4c0-1.9,1.5-3.4,3.4-3.4s3.4,1.5,3.4,3.4
		C58.6,53.2,57.1,54.7,55.2,54.7z M64.3,47.9c0,1.3-0.5,1.7-3.5,1.7h-0.7c-0.7-2-2.6-3.4-4.8-3.4c-2.2,0-4.1,1.4-4.8,3.4h-19
		c-0.7-2-2.6-3.4-4.8-3.4c-2.2,0-4.1,1.4-4.8,3.4h0c-3,0-3.5-0.5-3.5-1.7V30.7c0-1.9,1.6-3.5,3.5-3.5h18.8c0.1,0,0.1,0,0.2,0h3.9
		c0.1,0,0.1,0,0.2,0h6.1l0,10.9c0,0.5,0.4,0.9,0.9,0.9h10.4c0.7,0.6,1.4,1.1,2.1,1.6V47.9z"/>
	<path fill="#FAFAFA" d="M29.4,42.8c-3.6,0-6.6-3-6.6-6.6c0-3.6,3-6.6,6.6-6.6c3.6,0,6.6,3,6.6,6.6C36,39.8,33.1,42.8,29.4,42.8z
		 M29.4,31.3c-2.7,0-4.9,2.2-4.9,4.9c0,2.7,2.2,4.9,4.9,4.9c2.7,0,4.9-2.2,4.9-4.9C34.3,33.5,32.1,31.3,29.4,31.3z"/>
</g>
</svg>
