<?xml version="1.0" encoding="utf-8"?>
<!-- Generator: Adobe Illustrator 15.0.2, SVG Export Plug-In . SVG Version: 6.00 Build 0)  -->
<!DOCTYPE svg PUBLIC "-//W3C//DTD SVG 1.1//EN" "http://www.w3.org/Graphics/SVG/1.1/DTD/svg11.dtd">
<svg version="1.1" id="Layer_1" xmlns="http://www.w3.org/2000/svg" xmlns:xlink="http://www.w3.org/1999/xlink" x="0px" y="0px"
	 width="33.632px" height="44.831px" viewBox="0 0 33.632 44.831" enable-background="new 0 0 33.632 44.831" xml:space="preserve">
<g id="flag-2">
	<path fill="#FD7400" stroke="#FD7D25" stroke-miterlimit="10" d="M32.976,27.032l-7.407-9.886l7.385-8.936
		c0.191-0.231,0.232-0.553,0.104-0.826c-0.128-0.273-0.402-0.447-0.703-0.447H20.129V4.202c0-0.402-0.307-0.738-0.707-0.774
		L2.149,1.873C2.116,1.87,2.087,1.882,2.055,1.883V0.5H0.5v43.831h1.555V25.732l16.52-1.469v3.235c0,0.43,0.349,0.777,0.777,0.777
		h13.002c0.295,0,0.564-0.166,0.695-0.43C33.181,27.583,33.152,27.268,32.976,27.032z M2.055,3.426l16.52,1.487v17.79l-16.52,1.47
		V3.426z M20.129,26.722v-3.308V8.493h10.574l-6.723,8.134c-0.229,0.276-0.238,0.674-0.023,0.961l6.843,9.133H20.129z"/>
</g>
</svg>
