<?xml version="1.0" encoding="utf-8"?>
<!-- Generator: Adobe Illustrator 15.0.2, SVG Export Plug-In . SVG Version: 6.00 Build 0)  -->
<!DOCTYPE svg PUBLIC "-//W3C//DTD SVG 1.1//EN" "http://www.w3.org/Graphics/SVG/1.1/DTD/svg11.dtd">
<svg version="1.1" id="Layer_1" xmlns="http://www.w3.org/2000/svg" xmlns:xlink="http://www.w3.org/1999/xlink" x="0px" y="0px"
	 width="34.416px" height="33.803px" viewBox="0 0 34.416 33.803" enable-background="new 0 0 34.416 33.803" xml:space="preserve">
<g id="alert">
	<path fill="#D62926" stroke="#D62926" stroke-miterlimit="10" d="M33.791,32.34L17.734,0.8c-0.203-0.4-0.86-0.4-1.063,0
		L0.564,32.436c-0.094,0.186-0.085,0.406,0.023,0.582c0.108,0.178,0.301,0.285,0.509,0.285h32.21c0.004,0,0.008,0,0.012,0
		c0.33,0,0.597-0.267,0.597-0.597C33.916,32.569,33.869,32.442,33.791,32.34z M2.071,32.11L17.202,2.386L32.333,32.11H2.071z"/>
	<path fill="#D62926" stroke="#D62926" stroke-miterlimit="10" d="M16.657,10.523v12.264c0,0.33,0.267,0.597,0.597,0.597
		s0.597-0.267,0.597-0.597V10.523c0-0.33-0.267-0.597-0.597-0.597S16.657,10.193,16.657,10.523z"/>
	<circle fill="#D62926" stroke="#D62926" stroke-miterlimit="10" cx="17.269" cy="27.275" r="1.791"/>
</g>
</svg>
