<svg xmlns="http://www.w3.org/2000/svg" xmlns:xlink="http://www.w3.org/1999/xlink" version="1.1" id="Layer_1" x="0px" y="0px" width="106.523px" height="42.126px" viewBox="0 0 106.523 42.126" enable-background="new 0 0 106.523 42.126" xml:space="preserve">
<g>
	<g>
		<path fill="#633513" d="M0 13.567h3.944v2.117c0.503-0.793 1.111-1.387 1.827-1.784c0.715-0.396 1.469-0.594 2.262-0.594 c0.387 0 0.7 0 1 0.043s0.474 0.1 0.7 0.102l-0.493 3.684C8.7 17 8.1 17 7.5 17 c-0.444 0-0.87 0.054-1.275 0.16c-0.406 0.106-0.773 0.304-1.103 0.594c-0.348 0.31-0.604 0.658-0.769 1 c-0.164 0.387-0.246 0.783-0.246 1.189v8.759H0V13.567z"/>
		<path fill="#633513" d="M12.122 8h4.176v3.654h-4.176V8z M12.181 13.567h4.06v15.139h-4.06V13.567z"/>
		<path fill="#633513" d="M30.363 26.704c-1.16 1.644-2.727 2.465-4.698 2.465c-2.127 0-3.712-0.715-4.756-2.146 s-1.566-3.412-1.566-5.945c0-1.179 0.149-2.257 0.45-3.233c0.299-0.976 0.729-1.817 1.29-2.523 c0.561-0.706 1.247-1.251 2.06-1.638c0.812-0.387 1.729-0.58 2.755-0.58c0.754 0 1.5 0.1 2.2 0.406s1.445 0.8 2.1 1.6 V8h4.061v20.707h-3.944V26.704z M30.276 20.962c0-0.966-0.083-1.74-0.247-2.319c-0.164-0.58-0.43-1.054-0.797-1.421 c-0.349-0.348-0.73-0.575-1.146-0.682c-0.416-0.106-0.827-0.16-1.232-0.16c-0.445 0-0.866 0.087-1.262 0.3 c-0.396 0.174-0.744 0.444-1.044 0.812s-0.537 0.851-0.711 1.45c-0.174 0.6-0.261 1.315-0.261 2.1 c0 0.9 0.1 1.7 0.2 2.276c0.164 0.6 0.4 1.1 0.7 1.479s0.628 0.6 1 0.8 c0.386 0.2 0.8 0.2 1.2 0.246c0.966 0 1.759-0.28 2.378-0.841c0.386-0.387 0.671-0.855 0.855-1.406 c0.184-0.551 0.275-1.262 0.275-2.132V20.962z"/>
		<path fill="#633513" d="M51.765 23.979c-0.271 1.701-0.952 2.991-2.044 3.871c-1.093 0.88-2.683 1.319-4.771 1.3 c-2.514 0-4.404-0.695-5.67-2.088c-1.267-1.392-1.899-3.363-1.899-5.915c0-1.277 0.184-2.412 0.551-3.408 c0.367-0.996 0.885-1.842 1.552-2.538s1.464-1.222 2.393-1.581c0.928-0.357 1.952-0.536 3.074-0.536 c2.319 0 4.1 0.7 5.2 2.001c1.169 1.3 1.8 3.1 1.8 5.395v1.623H41.44c0.039 1.2 0.3 2.2 0.9 2.9 c0.58 0.7 1.4 1 2.6 1.03c1.604 0 2.552-0.677 2.842-2.03H51.765z M48.023 19.454c0-1.044-0.256-1.856-0.769-2.436 c-0.512-0.58-1.31-0.87-2.393-0.87c-0.541 0-1.015 0.087-1.421 0.261c-0.405 0.174-0.749 0.411-1.029 0.7 s-0.498 0.647-0.652 1.044c-0.155 0.396-0.242 0.826-0.261 1.29H48.023z"/>
	</g>
	<g>
		<g>
			<path fill="#633513" d="M74.132 21.552c-0.234 0.045-0.479 0.083-0.734 0.113c-0.255 0.031-0.511 0.068-0.767 0.1 c-0.241 0.045-0.478 0.105-0.711 0.181s-0.436 0.176-0.608 0.303c-0.174 0.128-0.313 0.29-0.418 0.5 c-0.105 0.195-0.157 0.442-0.157 0.742c0 0.3 0.1 0.5 0.2 0.722c0.104 0.2 0.2 0.3 0.4 0.5 c0.181 0.1 0.4 0.2 0.6 0.235s0.488 0.1 0.7 0.068c0.631 0 1.119-0.106 1.466-0.315 c0.347-0.211 0.603-0.463 0.769-0.755c0.164-0.292 0.266-0.589 0.304-0.889c0.037-0.301 0.057-0.54 0.057-0.721v-1.192 c-0.136 0.119-0.305 0.212-0.507 0.281C74.583 21.5 74.4 21.5 74.1 21.6"/>
		</g>
		<g>
			<path fill="#633513" d="M106.399 25.772c0 0-0.003 0.002-0.006 0.006l-0.002 0.002c-0.517 0.521-1.13 0.893-1.824 1.1 c-0.701 0.212-1.425 0.319-2.152 0.319c-0.563 0-1.097-0.07-1.587-0.208c-0.492-0.138-0.93-0.356-1.302-0.651 c-0.373-0.296-0.669-0.674-0.878-1.124c-0.209-0.447-0.315-0.987-0.315-1.603c0-0.678 0.122-1.246 0.363-1.689 c0.24-0.443 0.556-0.801 0.938-1.064c0.378-0.263 0.814-0.461 1.298-0.592c0.47-0.127 0.956-0.229 1.443-0.306 c0.484-0.076 0.965-0.136 1.429-0.182c0.455-0.044 0.866-0.111 1.223-0.199c0.343-0.086 0.616-0.211 0.811-0.373 c0.179-0.146 0.264-0.369 0.251-0.663c0-0.323-0.053-0.581-0.155-0.765c-0.102-0.183-0.239-0.328-0.409-0.431 c-0.173-0.103-0.378-0.174-0.609-0.209c-0.239-0.036-0.504-0.054-0.784-0.054c-0.603 0-1.08 0.129-1.418 0.4 c-0.306 0.229-0.495 0.614-0.567 1.142h0.02l-0.021 0.02c-0.005 0.035-0.011 0.071-0.015 0.108l-0.005 0.054l-0.005 0.053h-0.054 h-0.053h-0.106l-0.024 0.022l0.002-0.022h-2.956l-0.001 0.026l-0.023-0.026h-0.085h-0.062h-0.062l0.004-0.062l0.004-0.062 c0.001-0.029 0.005-0.057 0.007-0.084l-0.025-0.027h0.026c0.058-0.72 0.25-1.333 0.573-1.818c0.34-0.509 0.777-0.923 1.299-1.23 c0.521-0.306 1.112-0.526 1.76-0.655c0.639-0.129 1.294-0.194 1.947-0.194c0.588 0 1.2 0 1.8 0.1 C103.426 6.2 95.4 0 86 0C74.319 0 64.9 9.4 64.9 21.063c0 11.6 9.4 21.1 21.1 21.1 c10.073 0 18.494-7.073 20.571-16.521c-0.07 0.095-0.121 0.164-0.121 0.164L106.399 25.772z M75.65 26.8 c-0.06-0.181-0.108-0.363-0.146-0.55c-0.038-0.187-0.065-0.378-0.079-0.573c-0.511 0.524-1.112 0.892-1.803 1.1 c-0.69 0.208-1.396 0.314-2.117 0.314c-0.557 0-1.074-0.068-1.556-0.204c-0.48-0.135-0.901-0.346-1.261-0.63 c-0.361-0.286-0.643-0.646-0.844-1.081c-0.204-0.436-0.305-0.953-0.305-1.554c0-0.661 0.115-1.205 0.349-1.634 c0.232-0.428 0.533-0.769 0.901-1.023c0.368-0.256 0.789-0.448 1.263-0.575c0.474-0.128 0.949-0.229 1.431-0.304 c0.481-0.075 0.954-0.136 1.42-0.181s0.879-0.113 1.239-0.203c0.361-0.09 0.646-0.221 0.856-0.394 c0.211-0.172 0.309-0.425 0.294-0.754c0-0.346-0.057-0.619-0.17-0.823c-0.112-0.202-0.262-0.36-0.45-0.473 s-0.406-0.188-0.653-0.225c-0.248-0.038-0.515-0.056-0.8-0.056c-0.632 0-1.127 0.135-1.488 0.4 c-0.359 0.27-0.57 0.722-0.63 1.353h-3.195c0.045-0.751 0.232-1.375 0.562-1.871c0.331-0.496 0.751-0.894 1.261-1.194 c0.51-0.301 1.084-0.516 1.722-0.643c0.639-0.128 1.28-0.191 1.926-0.191c0.585 0 1.2 0 1.8 0.1 c0.602 0.1 1.1 0.2 1.6 0.484c0.495 0.2 0.9 0.6 1.2 1.002c0.315 0.4 0.5 1 0.5 1.7v6.06 c0 0.5 0 1 0.1 1.51c0.061 0.5 0.2 0.8 0.3 1.081L75.65 26.792z M89.123 25.9 c-0.991 0.811-2.26 1.217-3.805 1.217c-0.871 0-1.67-0.147-2.398-0.438c-0.727-0.293-1.346-0.702-1.854-1.228 c-0.511-0.524-0.908-1.15-1.193-1.878c-0.285-0.727-0.429-1.525-0.429-2.396c0-0.899 0.133-1.735 0.395-2.507 c0.262-0.772 0.648-1.44 1.159-2.002c0.51-0.563 1.132-1.002 1.867-1.316c0.736-0.315 1.576-0.473 2.521-0.473 c0.69 0 1.4 0.1 2 0.271c0.64 0.2 1.2 0.5 1.7 0.82c0.503 0.4 0.9 0.8 1.2 1.4 c0.316 0.5 0.5 1.2 0.5 1.948h-3.129c-0.21-1.339-0.998-2.008-2.363-2.008c-0.51 0-0.938 0.117-1.283 0.3 c-0.346 0.233-0.627 0.533-0.844 0.901c-0.218 0.368-0.372 0.771-0.462 1.214c-0.09 0.442-0.135 0.88-0.135 1.3 c0 0.4 0 0.8 0.1 1.283s0.235 0.8 0.4 1.181c0.202 0.4 0.5 0.6 0.8 0.9 c0.346 0.2 0.8 0.3 1.3 0.338c0.767 0 1.354-0.215 1.767-0.643c0.413-0.428 0.672-1.002 0.776-1.723h3.085 C90.713 23.9 90.1 25.1 89.1 25.9 M98.164 17.294h-2.342v5.758c0 0.5 0.1 0.9 0.3 1.1 c0.18 0.2 0.5 0.3 1.1 0.271c0.122 0 0.236-0.008 0.352-0.016v2.479c-0.086 0.007-0.171 0.015-0.262 0 c-0.33 0.016-0.654 0.024-0.969 0.024c-0.494 0-0.964-0.034-1.405-0.103c-0.442-0.067-0.834-0.198-1.171-0.394 s-0.604-0.472-0.799-0.833s-0.293-0.833-0.293-1.418v-6.868H91.13v-2.14h1.497v-3.488h3.195v3.488h2.342V17.294z"/>
		</g>
		<g>
			<path fill="#633513" d="M105.064 21.667c-0.238 0.046-0.487 0.084-0.743 0.114c-0.252 0.029-0.508 0.067-0.759 0.1 c-0.234 0.043-0.469 0.103-0.697 0.176c-0.219 0.071-0.414 0.167-0.575 0.285c-0.158 0.117-0.288 0.268-0.384 0.4 c-0.096 0.176-0.144 0.406-0.144 0.687c0 0.3 0 0.5 0.1 0.664c0.095 0.2 0.2 0.3 0.4 0.4 c0.166 0.1 0.4 0.2 0.6 0.22c0.233 0 0.5 0.1 0.7 0.065c0.606 0 1.08-0.1 1.406-0.298 c0.327-0.199 0.573-0.439 0.726-0.712c0.157-0.277 0.255-0.562 0.291-0.846c0.037-0.302 0.056-0.533 0.056-0.706v-0.964 c-0.105 0.063-0.223 0.119-0.354 0.164C105.53 21.6 105.3 21.6 105.1 21.7"/>
		</g>
	</g>
</g>
</svg>
