<?xml version="1.0" encoding="utf-8"?>
<!-- Generator: Adobe Illustrator 15.0.2, SVG Export Plug-In . SVG Version: 6.00 Build 0)  -->
<!DOCTYPE svg PUBLIC "-//W3C//DTD SVG 1.1//EN" "http://www.w3.org/Graphics/SVG/1.1/DTD/svg11.dtd">
<svg version="1.1" id="icon-publication" xmlns="http://www.w3.org/2000/svg" xmlns:xlink="http://www.w3.org/1999/xlink" x="0px"
	 y="0px" width="55.039px" height="54.477px" viewBox="0 0 55.039 54.477" enable-background="new 0 0 55.039 54.477"
	 xml:space="preserve">
<g id="bookmark">
	<path fill="#FAFAFA" stroke="#FAFAFA" stroke-miterlimit="10" d="M43.536,9.611H30.211c-1.252,0-2.354,0.613-3.047,1.544
		c-0.694-0.931-1.794-1.544-3.046-1.544H10.793c-2.103,0-3.807,1.705-3.807,3.808v27.887c0,2.104,1.704,3.809,3.807,3.809h13.325
		c0.858,0,1.648,0.984,2.285,2.008l0.111,2.252l0.649-0.172l0.648,0.172l0.113-2.252c0.637-1.023,1.427-2.008,2.285-2.008h13.325
		c2.102,0,3.808-1.705,3.808-3.809V13.419C47.344,11.316,45.638,9.611,43.536,9.611z M26.402,44.643
		c-0.639-0.619-1.391-1.053-2.284-1.053H10.793c-1.26,0-2.284-1.024-2.284-2.285V13.419c0-1.26,1.024-2.285,2.284-2.285h13.325
		c1.26,0,2.284,1.025,2.284,2.285V44.643z M45.821,41.305c0,1.261-1.025,2.285-2.285,2.285H30.211c-0.895,0-1.646,0.434-2.285,1.053
		V13.419c0-1.26,1.025-2.285,2.285-2.285h13.325c1.26,0,2.285,1.025,2.285,2.285V41.305z"/>
</g>
</svg>
