<?xml version="1.0" encoding="utf-8"?>
<!-- Generator: Adobe Illustrator 15.0.2, SVG Export Plug-In . SVG Version: 6.00 Build 0)  -->
<!DOCTYPE svg PUBLIC "-//W3C//DTD SVG 1.1//EN" "http://www.w3.org/Graphics/SVG/1.1/DTD/svg11.dtd">
<svg version="1.1" id="icon-cloud" xmlns="http://www.w3.org/2000/svg" xmlns:xlink="http://www.w3.org/1999/xlink" x="0px" y="0px"
	 width="55.039px" height="54.477px" viewBox="0 0 55.039 54.477" enable-background="new 0 0 55.039 54.477" xml:space="preserve">
<g id="rain-cloud-1">
	<path fill="#FAFAFA" d="M47.25,23.321c0.082-0.651,0.123-1.302,0.123-1.967c0-8.94-6.037-16.186-16.453-16.186
		c-6.413,0-11.958,3.609-14.676,8.873c-0.082,0-0.165-0.015-0.247-0.015c-7.979,0-11.958,5.265-11.958,11.764
		c0,0.937,0.125,1.847,0.345,2.727c-2.151,0.395-3.778,2.253-3.778,4.479c0,2.509,2.083,4.557,4.634,4.557
		c0.042,0,0.082-0.012,0.124-0.012h10.4c0.08,0,0.151,0.012,0.233,0.012s0.165-0.012,0.247-0.012h14.428
		c0.084,0,0.166,0.012,0.248,0.012s0.152-0.012,0.236-0.012h15.873c0.043,0,0.082,0.012,0.123,0.012
		c4.002,0,7.242-3.187,7.242-7.121C54.395,26.536,51.193,23.375,47.25,23.321z M47.26,35.592c-0.078-0.007-0.154-0.012-0.23-0.012
		H31.156c-0.084,0-0.158,0.005-0.24,0.01c-0.082-0.005-0.162-0.01-0.244-0.01H16.244c-0.076,0-0.153,0.005-0.241,0.01
		c-0.078-0.005-0.157-0.01-0.239-0.01h-10.4c-0.074,0-0.147,0.005-0.222,0.01c-1.43-0.05-2.576-1.193-2.576-2.595
		c0-1.248,0.913-2.319,2.173-2.55l2.055-0.377L6.286,28.04c-0.191-0.757-0.287-1.514-0.287-2.25c0-6.125,3.721-9.787,9.956-9.804
		C16.051,15.994,16.148,16,16.244,16h1.194l0.547-1.061c2.488-4.818,7.443-7.812,12.935-7.812c8.67,0,14.494,5.717,14.494,14.226
		c0,0.583-0.037,1.146-0.109,1.721l-0.273,2.175l2.191,0.031c2.873,0.04,5.211,2.349,5.211,5.15
		C52.434,33.242,50.121,35.537,47.26,35.592z"/>
	<rect x="8.497" y="41.272" fill="#FAFAFA" width="36.216" height="1.96"/>
	<rect x="13.396" y="47.152" fill="#FAFAFA" width="36.217" height="1.96"/>
</g>
</svg>
