<?xml version="1.0" encoding="utf-8"?>
<!-- Generator: Adobe Illustrator 15.0.2, SVG Export Plug-In . SVG Version: 6.00 Build 0)  -->
<!DOCTYPE svg PUBLIC "-//W3C//DTD SVG 1.1//EN" "http://www.w3.org/Graphics/SVG/1.1/DTD/svg11.dtd">
<svg version="1.1" id="icon-letter-email" xmlns="http://www.w3.org/2000/svg" xmlns:xlink="http://www.w3.org/1999/xlink" x="0px"
	 y="0px" width="55.039px" height="54.477px" viewBox="0 0 55.039 54.477" enable-background="new 0 0 55.039 54.477"
	 xml:space="preserve">
<g id="envelope-1">
	<path fill="#FAFAFA" d="M50,10.699H5.004c-2.764,0-5.004,2.238-5.004,5v25.037c0,2.762,2.24,5,5.003,5H50
		c2.764,0,5.004-2.238,5.004-5V15.699C55.004,12.937,52.764,10.699,50,10.699z M50,12.699c0.287,0,0.561,0.053,0.824,0.129
		L27.478,31.377L4.183,12.828c0.263-0.076,0.534-0.128,0.821-0.128H50z M5.003,43.736c-0.297,0-0.578-0.057-0.849-0.137
		l15.963-12.711l-1.605-1.279L2.49,42.367c-0.307-0.469-0.489-1.029-0.489-1.631L2,15.699c0-0.612,0.186-1.179,0.502-1.655
		l24.974,19.889l25.028-19.883c0.312,0.474,0.498,1.039,0.498,1.649v25.037c0,0.602-0.182,1.158-0.486,1.627L36.457,29.607
		l-1.607,1.277l16.004,12.713c-0.273,0.082-0.555,0.139-0.854,0.139H5.003z"/>
</g>
</svg>
