<?xml version="1.0" encoding="utf-8"?>
<!-- Generator: Adobe Illustrator 15.0.2, SVG Export Plug-In . SVG Version: 6.00 Build 0)  -->
<!DOCTYPE svg PUBLIC "-//W3C//DTD SVG 1.1//EN" "http://www.w3.org/Graphics/SVG/1.1/DTD/svg11.dtd">
<svg version="1.1" id="icon-mileage" xmlns="http://www.w3.org/2000/svg" xmlns:xlink="http://www.w3.org/1999/xlink" x="0px"
	 y="0px" width="55.039px" height="54.477px" viewBox="0 0 55.039 54.477" enable-background="new 0 0 55.039 54.477"
	 xml:space="preserve">
<g id="speedometer">
	<rect x="26.539" y="7.967" fill="#FAFAFA" width="2" height="4.024"/>
	<rect x="5.703" y="28.99" fill="#FAFAFA" width="4.023" height="2"/>
	
		<rect x="13.148" y="41.052" transform="matrix(-0.7071 -0.7071 0.7071 -0.7071 -6.5066 84.0183)" fill="#FAFAFA" width="2" height="4.609"/>
	
		<rect x="11.533" y="14.883" transform="matrix(0.7074 0.7068 -0.7068 0.7074 15.0675 -4.6332)" fill="#FAFAFA" width="3.194" height="2"/>
	<path fill="#FAFAFA" d="M27.521,2.466c-15.197,0-27.518,12.32-27.518,27.518c0,8.334,3.709,15.796,9.561,20.841h35.914
		c5.852-5.045,9.561-12.507,9.561-20.841C55.039,14.786,42.719,2.466,27.521,2.466z M44.719,48.824H10.322
		c-5.295-4.837-8.318-11.662-8.318-18.841c0-14.07,11.447-25.518,25.518-25.518s25.518,11.447,25.518,25.518
		C53.039,37.163,50.016,43.988,44.719,48.824z"/>
	<path fill="#FAFAFA" d="M43.195,12.812c-0.219,0.22-0.434,0.44-0.652,0.658c-0.196,0.196-0.395,0.392-0.592,0.586l-0.012-0.01
		l-2.26,2.258l1.414,1.415l2.048-2.046c3.087,3.619,5.022,8.246,5.221,13.317l-3.001-0.001v2l2.994,0.001
		c-0.26,5.042-2.236,9.632-5.348,13.212l-2.184-2.183l-1.414,1.414l2.221,2.22c-0.004,0.003-0.006,0.006-0.01,0.009
		c0.428,0.407,0.942,0.896,1.439,1.371c4.506-4.352,7.324-10.437,7.324-17.18C50.385,23.179,47.619,17.154,43.195,12.812z"/>
	<path fill="#FAFAFA" d="M27.255,25.021c-2.61,0.164-4.69,2.318-4.69,4.969c0,2.757,2.242,5,5,5c2.757,0,5-2.243,5-5
		c0-1.107-0.375-2.122-0.986-2.951l3.545-14.884L27.255,25.021z M27.564,32.99c-1.654,0-3-1.346-3-3s1.346-3,3-3s3,1.346,3,3
		S29.219,32.99,27.564,32.99z"/>
</g>
</svg>
