<?xml version="1.0" encoding="utf-8"?>
<!-- Generator: Adobe Illustrator 15.0.2, SVG Export Plug-In . SVG Version: 6.00 Build 0)  -->
<!DOCTYPE svg PUBLIC "-//W3C//DTD SVG 1.1//EN" "http://www.w3.org/Graphics/SVG/1.1/DTD/svg11.dtd">
<svg version="1.1" id="icon-featured-content-van" xmlns="http://www.w3.org/2000/svg" xmlns:xlink="http://www.w3.org/1999/xlink"
	 x="0px" y="0px" width="55.039px" height="54.477px" viewBox="0 0 55.039 54.477" enable-background="new 0 0 55.039 54.477"
	 xml:space="preserve">
<g>
	<path fill="#FAFAFA" d="M51.595,26.426c-3.239-1.623-5.548-5.679-7.405-8.938c-1.656-2.912-2.752-4.835-4.281-4.835h-8.45H25.81
		H7.758c-2.875,0-5.213,2.339-5.213,5.214v17.179c0,3.309,3.068,3.467,4.936,3.475c0.024,2.814,2.319,5.094,5.137,5.094
		c2.819,0,5.112-2.279,5.137-5.094h18.402c0.025,2.814,2.319,5.094,5.137,5.094c2.819,0,5.111-2.279,5.137-5.094h0.43
		c1.823,0,5.214,0,5.214-3.475v-7.843C52.073,26.874,51.889,26.573,51.595,26.426z M42.68,18.348
		c1.107,1.945,2.371,4.156,3.92,6.052h-7.959l-0.038-10.01h1.302C40.469,14.463,41.801,16.801,42.68,18.348z M29.72,12.652h-2.173
		 M12.617,41.877c-1.875,0-3.401-1.525-3.401-3.402c0-1.875,1.526-3.4,3.401-3.4c1.875,0,3.401,1.525,3.401,3.4
		C16.019,40.351,14.493,41.877,12.617,41.877z M41.293,41.877c-1.875,0-3.401-1.525-3.401-3.402c0-1.875,1.526-3.4,3.401-3.4
		s3.401,1.525,3.401,3.4C44.694,40.351,43.168,41.877,41.293,41.877z M50.336,35.045c0,1.283-0.525,1.738-3.477,1.738h-0.72
		c-0.702-2.004-2.606-3.447-4.847-3.447c-2.239,0-4.145,1.443-4.847,3.447H17.464c-0.702-2.004-2.606-3.447-4.847-3.447
		c-2.24,0-4.144,1.443-4.847,3.447H7.758c-2.951,0-3.476-0.455-3.476-1.738V17.865c0-1.917,1.559-3.476,3.476-3.476h18.761
		c0.053,0.01,0.103,0.032,0.16,0.032h3.91c0.057,0,0.106-0.022,0.159-0.032h6.116l0.042,10.882c0.001,0.478,0.39,0.865,0.869,0.865
		h10.445c0.656,0.608,1.357,1.149,2.115,1.584V35.045z"/>
	<path fill="#FAFAFA" d="M15.476,29.943c-3.649,0-6.618-2.968-6.618-6.617c0-3.648,2.968-6.617,6.618-6.617
		c3.648,0,6.617,2.969,6.617,6.617C22.092,26.975,19.124,29.943,15.476,29.943z M15.476,18.447c-2.691,0-4.88,2.188-4.88,4.879
		s2.189,4.881,4.88,4.881c2.69,0,4.879-2.19,4.879-4.881S18.166,18.447,15.476,18.447z"/>
</g>
</svg>
