<?xml version="1.0" encoding="utf-8"?>
<!-- Generator: Adobe Illustrator 15.0.2, SVG Export Plug-In . SVG Version: 6.00 Build 0)  -->
<!DOCTYPE svg PUBLIC "-//W3C//DTD SVG 1.1//EN" "http://www.w3.org/Graphics/SVG/1.1/DTD/svg11.dtd">
<svg version="1.1" id="icon-gaspump" xmlns="http://www.w3.org/2000/svg" xmlns:xlink="http://www.w3.org/1999/xlink" x="0px"
	 y="0px" width="55.039px" height="54.477px" viewBox="0 0 55.039 54.477" enable-background="new 0 0 55.039 54.477"
	 xml:space="preserve">
<g id="gas-pump">
	<rect x="15.366" y="6.222" fill="#FAFAFA" width="20.182" height="10.428"/>
	<circle fill="#FAFAFA" cx="17.584" cy="24.188" r="1.968"/>
	<circle fill="#FAFAFA" cx="25.458" cy="24.188" r="1.968"/>
	<circle fill="#FAFAFA" cx="33.332" cy="24.188" r="1.968"/>
	<path fill="#FAFAFA" d="M53.78,10.364l-0.017-0.334l-6.139-7.169l-1.496,1.28l3.213,3.752c-0.664,0.529-0.714,2.06-0.063,3.633
		c0.673,1.629,1.842,2.694,2.694,2.513c0.706,18.362-0.823,28.674-2.268,28.835c-0.389,0.051-0.568-0.075-0.702-0.195
		c-1.318-1.195-1.245-6.42-1.18-11.03c0.046-3.248,0.095-6.608-0.227-9.536c-0.331-3.014-1.442-5.088-3.303-6.166
		c-0.685-0.397-1.401-0.603-2.104-0.706V4.92c0-2.717-2.203-4.92-4.921-4.92H13.647C10.93,0,8.727,2.203,8.727,4.92v47.292H2.27
		v1.968h6.457h33.463h6.371v-1.968h-6.371v-34.98c0.385,0.081,0.764,0.213,1.118,0.419c1.288,0.746,2.073,2.32,2.331,4.677
		c0.309,2.807,0.262,6.106,0.216,9.294c-0.08,5.753-0.151,10.723,1.826,12.515c0.521,0.472,1.163,0.717,1.877,0.717
		c0.12,0,0.241-0.008,0.366-0.021c1.869-0.21,3.821-2.499,4.12-17.876C54.203,18.723,53.784,10.447,53.78,10.364z M10.695,52.212
		V4.92c0-1.628,1.325-2.952,2.953-2.952h23.621c1.628,0,2.953,1.324,2.953,2.952v47.292H10.695z"/>
</g>
</svg>
