<?xml version="1.0" encoding="utf-8"?>
<!-- Generator: Adobe Illustrator 15.0.2, SVG Export Plug-In . SVG Version: 6.00 Build 0)  -->
<!DOCTYPE svg PUBLIC "-//W3C//DTD SVG 1.1//EN" "http://www.w3.org/Graphics/SVG/1.1/DTD/svg11.dtd">
<svg version="1.1" id="Layer_1" xmlns="http://www.w3.org/2000/svg" xmlns:xlink="http://www.w3.org/1999/xlink" x="0px" y="0px"
	 width="55.039px" height="54.476px" viewBox="0 0 55.039 54.476" enable-background="new 0 0 55.039 54.476" xml:space="preserve">
<g id="bus">
	<path fill="#FAFAFA" d="M47.524,11.969H7.767v17.757h39.758V11.969z M26.499,27.726H9.767V13.969h16.732V27.726z M45.524,27.726
		H28.498V13.969h17.026V27.726z"/>
	<rect x="15.506" y="1.787" fill="#FAFAFA" width="24.037" height="2"/>
	<rect x="11.441" fill="#FAFAFA" width="2" height="4.502"/>
	<rect x="41.441" fill="#FAFAFA" width="2" height="4.502"/>
	<path fill="#FAFAFA" d="M51.55,13.229v-0.253c0-3.308-2.691-6-6-6H9.5c-3.309,0-6,2.692-6,6v0.25C1.476,13.867,0,15.741,0,17.976
		v6.916c0,2.236,1.476,4.104,3.5,4.738v10.846c0,2.973,2.172,5.439,5.013,5.912v4.769c0,1.834,1.486,3.319,3.32,3.319
		c1.834,0,3.32-1.485,3.32-3.319v-4.681h25.36v4.681c0,1.834,1.485,3.319,3.32,3.319c1.834,0,3.319-1.485,3.319-3.319v-4.905
		c2.531-0.703,4.397-3.021,4.397-5.775V29.627c2.019-0.64,3.489-2.503,3.489-4.735v-6.916C55.039,15.745,53.568,13.872,51.55,13.229
		z M3.5,27.484C2.604,26.964,2,26.001,2,24.892v-6.916c0-1.104,0.608-2.055,1.5-2.573V27.484z M49.55,40.476c0,2.207-1.794,4-4,4
		H9.5c-2.207,0-4-1.793-4-4v-27.5c0-2.206,1.793-4,4-4h36.05c2.206,0,4,1.794,4,4V40.476z M53.039,24.892
		c0,1.104-0.6,2.067-1.489,2.586V15.411c0.886,0.518,1.489,1.466,1.489,2.565V24.892z"/>
	<rect x="7.892" y="31.851" fill="#FAFAFA" width="5.75" height="4"/>
	<rect x="41.892" y="31.851" fill="#FAFAFA" width="5.75" height="4"/>
	<rect x="18.108" y="33.841" fill="#FAFAFA" width="19.166" height="2"/>
	<rect x="18.108" y="38.841" fill="#FAFAFA" width="19.166" height="2"/>
</g>
</svg>
