<?xml version="1.0" encoding="utf-8"?>
<!-- Generator: Adobe Illustrator 15.0.2, SVG Export Plug-In . SVG Version: 6.00 Build 0)  -->
<!DOCTYPE svg PUBLIC "-//W3C//DTD SVG 1.1//EN" "http://www.w3.org/Graphics/SVG/1.1/DTD/svg11.dtd">
<svg version="1.1" id="Layer_4" xmlns="http://www.w3.org/2000/svg" xmlns:xlink="http://www.w3.org/1999/xlink" x="0px" y="0px"
	 width="55.039px" height="54.477px" viewBox="0 0 55.039 54.477" enable-background="new 0 0 55.039 54.477" xml:space="preserve">
<g id="building">
	<rect x="8.098" y="32.556" fill="#FAFAFA" width="7.485" height="12.814"/>
	<rect x="39.299" y="32.556" fill="#FAFAFA" width="7.494" height="12.814"/>
	<rect x="39.299" y="7.136" fill="#FAFAFA" width="7.494" height="12.814"/>
	<rect x="23.623" y="7.136" fill="#FAFAFA" width="7.495" height="12.814"/>
	<rect x="8.098" y="7.136" fill="#FAFAFA" width="7.485" height="12.814"/>
	<path fill="#FAFAFA" d="M53.431,0H1.648C1.127,0,0.707,0.42,0.707,0.941v51.783c0,0.52,0.421,0.941,0.941,0.941h51.783
		c0.521,0,0.941-0.422,0.941-0.941V0.941C54.372,0.42,53.951,0,53.431,0z M52.489,1.883V25.91H2.59V1.883H52.489z M31.728,51.783
		h-8.435V33.499h8.435V51.783z M33.611,51.783V32.556c0-0.52-0.422-0.941-0.941-0.941H22.351c-0.519,0-0.941,0.422-0.941,0.941
		v19.227H2.59V27.794h49.899v23.989H33.611z"/>
</g>
</svg>
